M48
;DRILL file {KiCad 4.0.4-stable} date 11/04/16 17:13:56
;FORMAT={-:-/ absolute / inch / decimal}
FMAT,2
INCH,TZ
T1C0.016
T2C0.040
%
G90
G05
M72
T1
X4.5175Y-3.4975
X4.5625Y-3.7475
X4.6575Y-3.445
X4.6725Y-3.485
X4.6775Y-3.5525
X4.71Y-2.8475
X4.7925Y-3.79
X4.7925Y-3.895
X4.825Y-3.86
X4.8275Y-3.2625
X4.83Y-3.7675
X4.8575Y-3.485
X4.86Y-3.28
X4.8625Y-3.535
X4.875Y-3.895
X4.895Y-3.4525
X4.925Y-3.775
X4.925Y-3.825
X4.9725Y-3.4375
X4.9925Y-3.8525
X4.995Y-3.8025
X5.0075Y-3.4675
X5.1575Y-3.9075
X5.1625Y-3.545
X5.19Y-2.935
X5.245Y-3.13
X5.26Y-3.075
X5.3025Y-3.875
X5.35Y-3.5825
X5.42Y-3.5525
X5.4475Y-3.7825
X5.4575Y-3.9325
X5.4725Y-3.3575
X5.5325Y-2.9225
T2
X4.3225Y-2.93
X4.3225Y-3.03
X4.65Y-4.0325
X4.65Y-4.1325
X4.75Y-4.0325
X4.75Y-4.1325
X4.85Y-4.0325
X4.85Y-4.1325
X4.95Y-4.0325
X4.95Y-4.1325
X5.05Y-4.0325
X5.05Y-4.1325
X5.3475Y-2.8275
X5.3475Y-2.9275
X5.3475Y-3.0275
X5.45Y-4.04
X5.45Y-4.14
X5.545Y-3.5025
X5.545Y-3.6025
X5.545Y-3.7025
X5.55Y-4.04
X5.55Y-4.14
X5.6275Y-2.825
X5.6275Y-2.925
X5.6275Y-3.025
X5.6275Y-3.125
X5.645Y-3.5025
X5.645Y-3.6025
X5.645Y-3.7025
X5.65Y-4.04
X5.65Y-4.14
T0
M30
