G04 #@! TF.FileFunction,Copper,L1,Top,Signal*
%FSLAX46Y46*%
G04 Gerber Fmt 4.6, Leading zero omitted, Abs format (unit mm)*
G04 Created by KiCad (PCBNEW 4.0.4-stable) date 11/04/16 17:13:28*
%MOMM*%
%LPD*%
G01*
G04 APERTURE LIST*
%ADD10C,0.100000*%
%ADD11R,1.600000X1.000000*%
%ADD12R,0.500000X0.600000*%
%ADD13R,1.597660X1.800860*%
%ADD14R,1.600000X0.550000*%
%ADD15R,0.550000X1.600000*%
%ADD16R,1.727200X1.727200*%
%ADD17O,1.727200X1.727200*%
%ADD18R,2.032000X1.727200*%
%ADD19O,2.032000X1.727200*%
%ADD20R,2.032000X2.032000*%
%ADD21O,2.032000X2.032000*%
%ADD22R,0.900000X0.500000*%
%ADD23R,1.550000X1.300000*%
%ADD24R,2.100580X5.600700*%
%ADD25C,0.600000*%
%ADD26C,0.250000*%
%ADD27C,0.254000*%
G04 APERTURE END LIST*
D10*
D11*
X116078000Y-81875500D03*
X116078000Y-84875500D03*
D12*
X116014500Y-90001000D03*
X116014500Y-91101000D03*
X116014500Y-93577500D03*
X116014500Y-92477500D03*
D13*
X114531140Y-72326500D03*
X117370860Y-72326500D03*
D14*
X120337000Y-86862000D03*
X120337000Y-87662000D03*
X120337000Y-88462000D03*
X120337000Y-89262000D03*
X120337000Y-90062000D03*
X120337000Y-90862000D03*
X120337000Y-91662000D03*
X120337000Y-92462000D03*
D15*
X121787000Y-93912000D03*
X122587000Y-93912000D03*
X123387000Y-93912000D03*
X124187000Y-93912000D03*
X124987000Y-93912000D03*
X125787000Y-93912000D03*
X126587000Y-93912000D03*
X127387000Y-93912000D03*
D14*
X128837000Y-92462000D03*
X128837000Y-91662000D03*
X128837000Y-90862000D03*
X128837000Y-90062000D03*
X128837000Y-89262000D03*
X128837000Y-88462000D03*
X128837000Y-87662000D03*
X128837000Y-86862000D03*
D15*
X127387000Y-85412000D03*
X126587000Y-85412000D03*
X125787000Y-85412000D03*
X124987000Y-85412000D03*
X124187000Y-85412000D03*
X123387000Y-85412000D03*
X122587000Y-85412000D03*
X121787000Y-85412000D03*
D16*
X138430000Y-105156000D03*
D17*
X138430000Y-102616000D03*
X140970000Y-105156000D03*
X140970000Y-102616000D03*
X143510000Y-105156000D03*
X143510000Y-102616000D03*
D18*
X135826500Y-71818500D03*
D19*
X135826500Y-74358500D03*
X135826500Y-76898500D03*
D18*
X142938500Y-71755000D03*
D19*
X142938500Y-74295000D03*
X142938500Y-76835000D03*
X142938500Y-79375000D03*
D16*
X128270000Y-102425500D03*
D17*
X128270000Y-104965500D03*
X125730000Y-102425500D03*
X125730000Y-104965500D03*
X123190000Y-102425500D03*
X123190000Y-104965500D03*
X120650000Y-102425500D03*
X120650000Y-104965500D03*
X118110000Y-102425500D03*
X118110000Y-104965500D03*
D16*
X140843000Y-88963500D03*
D17*
X143383000Y-88963500D03*
X140843000Y-91503500D03*
X143383000Y-91503500D03*
X140843000Y-94043500D03*
X143383000Y-94043500D03*
D20*
X109791500Y-74422000D03*
D21*
X109791500Y-76962000D03*
D22*
X115887500Y-77585000D03*
X115887500Y-76085000D03*
X124206000Y-80466500D03*
X124206000Y-81966500D03*
D23*
X129641500Y-76227500D03*
X121691500Y-76227500D03*
X129641500Y-71727500D03*
X121691500Y-71727500D03*
D24*
X110109000Y-97177860D03*
X110109000Y-87480140D03*
D25*
X139001500Y-85280500D03*
X138366500Y-96075500D03*
X133604000Y-78105000D03*
X140525500Y-74231500D03*
X114744500Y-88836500D03*
X115887500Y-95186500D03*
X119634000Y-72326500D03*
X131127500Y-90043000D03*
X118681500Y-88519000D03*
X118808500Y-90233500D03*
X118300500Y-87503000D03*
X123825000Y-98933000D03*
X123507500Y-89789000D03*
X121729500Y-96266000D03*
X121729500Y-98933000D03*
X122555000Y-98044000D03*
X122682000Y-95694500D03*
X125095000Y-97155000D03*
X126809500Y-97853500D03*
X126873000Y-96583500D03*
X125095000Y-95885000D03*
X138620500Y-99885500D03*
X131000500Y-99250500D03*
X127190500Y-88074500D03*
X135890000Y-90995500D03*
X137668000Y-90233500D03*
X126301500Y-87312500D03*
X133223000Y-79502000D03*
X134683500Y-98425000D03*
X124333000Y-87693500D03*
X123444000Y-83312000D03*
X131826000Y-74549000D03*
X122618500Y-82867500D03*
X123380500Y-88519000D03*
D26*
X136845296Y-102616000D02*
X136685148Y-102455852D01*
X136685148Y-102455852D02*
X136842500Y-102298500D01*
X136842500Y-102171500D02*
X136842500Y-102298500D01*
X136589898Y-102235000D02*
X136589898Y-102109398D01*
X136589898Y-102109398D02*
X133540500Y-99060000D01*
X136589898Y-102360602D02*
X136589898Y-102235000D01*
X136589898Y-102235000D02*
X136589898Y-102170102D01*
X136589898Y-102170102D02*
X136652000Y-102108000D01*
X138430000Y-102616000D02*
X136845296Y-102616000D01*
X134747000Y-96075500D02*
X138366500Y-96075500D01*
X133413500Y-97409000D02*
X134747000Y-96075500D01*
X133413500Y-99184204D02*
X133413500Y-97409000D01*
X136685148Y-102455852D02*
X136589898Y-102360602D01*
X136589898Y-102360602D02*
X133413500Y-99184204D01*
X142938500Y-74295000D02*
X140398500Y-74295000D01*
X133286500Y-78422500D02*
X127444500Y-78422500D01*
X133604000Y-78105000D02*
X133286500Y-78422500D01*
X140462000Y-74231500D02*
X140525500Y-74231500D01*
X140398500Y-74295000D02*
X140462000Y-74231500D01*
X120337000Y-89262000D02*
X117964000Y-89262000D01*
X116078000Y-87376000D02*
X116078000Y-84875500D01*
X117964000Y-89262000D02*
X116078000Y-87376000D01*
X120337000Y-90862000D02*
X122498000Y-90862000D01*
X122498000Y-90862000D02*
X122872500Y-90487500D01*
X128837000Y-90062000D02*
X126346000Y-90062000D01*
X126346000Y-90062000D02*
X125920500Y-90487500D01*
X120337000Y-89262000D02*
X121647000Y-89262000D01*
X127095000Y-91662000D02*
X128837000Y-91662000D01*
X125920500Y-90487500D02*
X127095000Y-91662000D01*
X122872500Y-90487500D02*
X125920500Y-90487500D01*
X121647000Y-89262000D02*
X122872500Y-90487500D01*
X116014500Y-90001000D02*
X115909000Y-90001000D01*
X115909000Y-90001000D02*
X114744500Y-88836500D01*
X116014500Y-93577500D02*
X116014500Y-95059500D01*
X116014500Y-95059500D02*
X115887500Y-95186500D01*
X121691500Y-71727500D02*
X129641500Y-71727500D01*
X117370860Y-72326500D02*
X119634000Y-72326500D01*
X119634000Y-72326500D02*
X121092500Y-72326500D01*
X121092500Y-72326500D02*
X121691500Y-71727500D01*
X128837000Y-89262000D02*
X130346500Y-89262000D01*
X130346500Y-89262000D02*
X131127500Y-90043000D01*
X120337000Y-88462000D02*
X118738500Y-88462000D01*
X118738500Y-88462000D02*
X118681500Y-88519000D01*
X120337000Y-90062000D02*
X118980000Y-90062000D01*
X118980000Y-90062000D02*
X118808500Y-90233500D01*
X116014500Y-91101000D02*
X114596000Y-91101000D01*
X114596000Y-91101000D02*
X110975140Y-87480140D01*
X110975140Y-87480140D02*
X110109000Y-87480140D01*
X120337000Y-91662000D02*
X117189000Y-91662000D01*
X116628000Y-91101000D02*
X116014500Y-91101000D01*
X117189000Y-91662000D02*
X116628000Y-91101000D01*
X110109000Y-97177860D02*
X110109000Y-96901000D01*
X110109000Y-96901000D02*
X114532500Y-92477500D01*
X114532500Y-92477500D02*
X116014500Y-92477500D01*
X116014500Y-92477500D02*
X120321500Y-92477500D01*
X120321500Y-92477500D02*
X120337000Y-92462000D01*
X115887500Y-76085000D02*
X115887500Y-75755500D01*
X114531140Y-74399140D02*
X114531140Y-72326500D01*
X115887500Y-75755500D02*
X114531140Y-74399140D01*
X120337000Y-86862000D02*
X118941500Y-86862000D01*
X118941500Y-86862000D02*
X118300500Y-87503000D01*
X123190000Y-104965500D02*
X123253500Y-104965500D01*
X123253500Y-104965500D02*
X124460000Y-103759000D01*
X124460000Y-103759000D02*
X124460000Y-99568000D01*
X124460000Y-99568000D02*
X123825000Y-98933000D01*
X123507500Y-89789000D02*
X122428000Y-88709500D01*
X122428000Y-88709500D02*
X122428000Y-88201500D01*
X122428000Y-88201500D02*
X121888500Y-87662000D01*
X121888500Y-87662000D02*
X120337000Y-87662000D01*
X120650000Y-102425500D02*
X120650000Y-100012500D01*
X121787000Y-96208500D02*
X121787000Y-93912000D01*
X121729500Y-96266000D02*
X121787000Y-96208500D01*
X120650000Y-100012500D02*
X121729500Y-98933000D01*
X120650000Y-104965500D02*
X120650000Y-104775000D01*
X120650000Y-104775000D02*
X121920000Y-103505000D01*
X121920000Y-103505000D02*
X121920000Y-99695000D01*
X121920000Y-99695000D02*
X122555000Y-99060000D01*
X122555000Y-99060000D02*
X122555000Y-98044000D01*
X122682000Y-95694500D02*
X122587000Y-95599500D01*
X122587000Y-95599500D02*
X122587000Y-93912000D01*
X118110000Y-102425500D02*
X118110000Y-101346000D01*
X123387000Y-96069000D02*
X123387000Y-93912000D01*
X118110000Y-101346000D02*
X123387000Y-96069000D01*
X128270000Y-102425500D02*
X128270000Y-99314000D01*
X124187000Y-96247000D02*
X124187000Y-93912000D01*
X125095000Y-97155000D02*
X124187000Y-96247000D01*
X128270000Y-99314000D02*
X126809500Y-97853500D01*
X128270000Y-104965500D02*
X129095500Y-104965500D01*
X129095500Y-104965500D02*
X129667000Y-104394000D01*
X129667000Y-104394000D02*
X129667000Y-99377500D01*
X129667000Y-99377500D02*
X126873000Y-96583500D01*
X125095000Y-95885000D02*
X124987000Y-95777000D01*
X124987000Y-95777000D02*
X124987000Y-93912000D01*
X125730000Y-102425500D02*
X125730000Y-93969000D01*
X125730000Y-93969000D02*
X125787000Y-93912000D01*
X140970000Y-102616000D02*
X140970000Y-102235000D01*
X140970000Y-102235000D02*
X138620500Y-99885500D01*
X131000500Y-99250500D02*
X126587000Y-94837000D01*
X126587000Y-94837000D02*
X126587000Y-93912000D01*
X138430000Y-105156000D02*
X138112500Y-105156000D01*
X138112500Y-105156000D02*
X127387000Y-94430500D01*
X127387000Y-94430500D02*
X127387000Y-93912000D01*
X140970000Y-105156000D02*
X140970000Y-104394000D01*
X140970000Y-104394000D02*
X140462000Y-103886000D01*
X140462000Y-103886000D02*
X137478898Y-103886000D01*
X137478898Y-103886000D02*
X132175949Y-98583051D01*
X132175949Y-98583051D02*
X132175949Y-94647449D01*
X132175949Y-94647449D02*
X129990500Y-92462000D01*
X129990500Y-92462000D02*
X128837000Y-92462000D01*
X140843000Y-94043500D02*
X133921500Y-94043500D01*
X130740000Y-90862000D02*
X128837000Y-90862000D01*
X133921500Y-94043500D02*
X130740000Y-90862000D01*
X143383000Y-94043500D02*
X143383000Y-93789500D01*
X143383000Y-93789500D02*
X142430500Y-92837000D01*
X142430500Y-92837000D02*
X135255000Y-92837000D01*
X135255000Y-92837000D02*
X130880000Y-88462000D01*
X130880000Y-88462000D02*
X128837000Y-88462000D01*
X140843000Y-88963500D02*
X132080000Y-88963500D01*
X130778500Y-87662000D02*
X128837000Y-87662000D01*
X132080000Y-88963500D02*
X130778500Y-87662000D01*
X143383000Y-88963500D02*
X143383000Y-88328500D01*
X143383000Y-88328500D02*
X141916500Y-86862000D01*
X141916500Y-86862000D02*
X128837000Y-86862000D01*
X140843000Y-91503500D02*
X136398000Y-91503500D01*
X127387000Y-87878000D02*
X127387000Y-85412000D01*
X127190500Y-88074500D02*
X127387000Y-87878000D01*
X136398000Y-91503500D02*
X135890000Y-90995500D01*
X143383000Y-91503500D02*
X143256000Y-91503500D01*
X143256000Y-91503500D02*
X141986000Y-90233500D01*
X141986000Y-90233500D02*
X137668000Y-90233500D01*
X126301500Y-87312500D02*
X126587000Y-87027000D01*
X126587000Y-87027000D02*
X126587000Y-85412000D01*
X125787000Y-85412000D02*
X125787000Y-84525000D01*
X139573000Y-71755000D02*
X142938500Y-71755000D01*
X138557000Y-72771000D02*
X139573000Y-71755000D01*
X138557000Y-78486000D02*
X138557000Y-72771000D01*
X136779000Y-80264000D02*
X138557000Y-78486000D01*
X130048000Y-80264000D02*
X136779000Y-80264000D01*
X125787000Y-84525000D02*
X130048000Y-80264000D01*
X124987000Y-85412000D02*
X124987000Y-84563000D01*
X130048000Y-79502000D02*
X133223000Y-79502000D01*
X124987000Y-84563000D02*
X130048000Y-79502000D01*
X121691500Y-76227500D02*
X129641500Y-76227500D01*
X124206000Y-81966500D02*
X124003500Y-81966500D01*
X124003500Y-81966500D02*
X121691500Y-79654500D01*
X121691500Y-79654500D02*
X121691500Y-76227500D01*
X124187000Y-85412000D02*
X124187000Y-81985500D01*
X124187000Y-81985500D02*
X124206000Y-81966500D01*
X143510000Y-105156000D02*
X143446500Y-105156000D01*
X143446500Y-105156000D02*
X142240000Y-103949500D01*
X142240000Y-103949500D02*
X142240000Y-100774500D01*
X142240000Y-100774500D02*
X139890500Y-98425000D01*
X139890500Y-98425000D02*
X134683500Y-98425000D01*
X124333000Y-87693500D02*
X124187000Y-87547500D01*
X124187000Y-87547500D02*
X124187000Y-85412000D01*
X123387000Y-85412000D02*
X123387000Y-83369000D01*
X123387000Y-83369000D02*
X123444000Y-83312000D01*
X122587000Y-85412000D02*
X122587000Y-82899000D01*
X132016500Y-74358500D02*
X135826500Y-74358500D01*
X131826000Y-74549000D02*
X132016500Y-74358500D01*
X122587000Y-82899000D02*
X122618500Y-82867500D01*
X123380500Y-88519000D02*
X123317000Y-88455500D01*
X123317000Y-88455500D02*
X123317000Y-87947500D01*
X123317000Y-87947500D02*
X121787000Y-86417500D01*
X121787000Y-86417500D02*
X121787000Y-85412000D01*
D27*
G36*
X120320069Y-70825610D02*
X120269060Y-71077500D01*
X120269060Y-71566500D01*
X120196463Y-71566500D01*
X120164327Y-71534308D01*
X119820799Y-71391662D01*
X119448833Y-71391338D01*
X119105057Y-71533383D01*
X119071882Y-71566500D01*
X118817130Y-71566500D01*
X118817130Y-71426070D01*
X118772852Y-71190753D01*
X118633780Y-70974629D01*
X118421580Y-70829639D01*
X118169690Y-70778630D01*
X116572030Y-70778630D01*
X116336713Y-70822908D01*
X116120589Y-70961980D01*
X115975599Y-71174180D01*
X115951970Y-71290866D01*
X115933132Y-71190753D01*
X115794060Y-70974629D01*
X115581860Y-70829639D01*
X115329970Y-70778630D01*
X113732310Y-70778630D01*
X113496993Y-70822908D01*
X113280869Y-70961980D01*
X113135879Y-71174180D01*
X113084870Y-71426070D01*
X113084870Y-73226930D01*
X113129148Y-73462247D01*
X113268220Y-73678371D01*
X113480420Y-73823361D01*
X113732310Y-73874370D01*
X113771140Y-73874370D01*
X113771140Y-74399140D01*
X113828992Y-74689979D01*
X113993739Y-74936541D01*
X114807260Y-75750062D01*
X114790060Y-75835000D01*
X114790060Y-76335000D01*
X114834338Y-76570317D01*
X114973410Y-76786441D01*
X115041506Y-76832969D01*
X114899173Y-76975302D01*
X114802500Y-77208691D01*
X114802500Y-77301250D01*
X114961250Y-77460000D01*
X115760500Y-77460000D01*
X115760500Y-77438000D01*
X116014500Y-77438000D01*
X116014500Y-77460000D01*
X116813750Y-77460000D01*
X116972500Y-77301250D01*
X116972500Y-77208691D01*
X116875827Y-76975302D01*
X116734590Y-76834064D01*
X116788941Y-76799090D01*
X116933931Y-76586890D01*
X116984940Y-76335000D01*
X116984940Y-75835000D01*
X116940662Y-75599683D01*
X116801590Y-75383559D01*
X116589390Y-75238569D01*
X116408801Y-75201999D01*
X115291140Y-74084338D01*
X115291140Y-73874370D01*
X115329970Y-73874370D01*
X115565287Y-73830092D01*
X115781411Y-73691020D01*
X115926401Y-73478820D01*
X115950030Y-73362134D01*
X115968868Y-73462247D01*
X116107940Y-73678371D01*
X116320140Y-73823361D01*
X116572030Y-73874370D01*
X118169690Y-73874370D01*
X118405007Y-73830092D01*
X118621131Y-73691020D01*
X118766121Y-73478820D01*
X118817130Y-73226930D01*
X118817130Y-73086500D01*
X119071537Y-73086500D01*
X119103673Y-73118692D01*
X119447201Y-73261338D01*
X119819167Y-73261662D01*
X120162943Y-73119617D01*
X120196118Y-73086500D01*
X121092500Y-73086500D01*
X121383339Y-73028648D01*
X121388888Y-73024940D01*
X122466500Y-73024940D01*
X122701817Y-72980662D01*
X122917941Y-72841590D01*
X123062931Y-72629390D01*
X123091664Y-72487500D01*
X128239758Y-72487500D01*
X128263338Y-72612817D01*
X128402410Y-72828941D01*
X128614610Y-72973931D01*
X128866500Y-73024940D01*
X130416500Y-73024940D01*
X130651817Y-72980662D01*
X130867941Y-72841590D01*
X131012931Y-72629390D01*
X131063940Y-72377500D01*
X131063940Y-71077500D01*
X131019662Y-70842183D01*
X130919804Y-70687000D01*
X134225008Y-70687000D01*
X134214069Y-70703010D01*
X134163060Y-70954900D01*
X134163060Y-72682100D01*
X134207338Y-72917417D01*
X134346410Y-73133541D01*
X134558610Y-73278531D01*
X134599939Y-73286900D01*
X134582085Y-73298830D01*
X134381852Y-73598500D01*
X132016500Y-73598500D01*
X131938090Y-73614097D01*
X131640833Y-73613838D01*
X131297057Y-73755883D01*
X131033808Y-74018673D01*
X130891162Y-74362201D01*
X130890838Y-74734167D01*
X131032883Y-75077943D01*
X131295673Y-75341192D01*
X131639201Y-75483838D01*
X132011167Y-75484162D01*
X132354943Y-75342117D01*
X132578951Y-75118500D01*
X134381852Y-75118500D01*
X134582085Y-75418170D01*
X134896866Y-75628500D01*
X134582085Y-75838830D01*
X134257229Y-76325011D01*
X134143155Y-76898500D01*
X134257229Y-77471989D01*
X134582085Y-77958170D01*
X135068266Y-78283026D01*
X135641755Y-78397100D01*
X136011245Y-78397100D01*
X136584734Y-78283026D01*
X137070915Y-77958170D01*
X137395771Y-77471989D01*
X137509845Y-76898500D01*
X137395771Y-76325011D01*
X137070915Y-75838830D01*
X136756134Y-75628500D01*
X137070915Y-75418170D01*
X137395771Y-74931989D01*
X137509845Y-74358500D01*
X137395771Y-73785011D01*
X137070915Y-73298830D01*
X137056587Y-73289257D01*
X137077817Y-73285262D01*
X137293941Y-73146190D01*
X137438931Y-72933990D01*
X137489940Y-72682100D01*
X137489940Y-70954900D01*
X137445662Y-70719583D01*
X137424695Y-70687000D01*
X141316452Y-70687000D01*
X141275060Y-70891400D01*
X141275060Y-70995000D01*
X139573000Y-70995000D01*
X139282161Y-71052852D01*
X139035599Y-71217599D01*
X138019599Y-72233599D01*
X137854852Y-72480161D01*
X137797000Y-72771000D01*
X137797000Y-78171198D01*
X136464198Y-79504000D01*
X134157999Y-79504000D01*
X134158162Y-79316833D01*
X134016117Y-78973057D01*
X133753327Y-78709808D01*
X133409799Y-78567162D01*
X133037833Y-78566838D01*
X132694057Y-78708883D01*
X132660882Y-78742000D01*
X130048000Y-78742000D01*
X129757161Y-78799852D01*
X129510599Y-78964599D01*
X124947000Y-83528198D01*
X124947000Y-82783831D01*
X125107441Y-82680590D01*
X125252431Y-82468390D01*
X125303440Y-82216500D01*
X125303440Y-81716500D01*
X125259162Y-81481183D01*
X125120090Y-81265059D01*
X125051994Y-81218531D01*
X125194327Y-81076198D01*
X125291000Y-80842809D01*
X125291000Y-80750250D01*
X125132250Y-80591500D01*
X124333000Y-80591500D01*
X124333000Y-80613500D01*
X124079000Y-80613500D01*
X124079000Y-80591500D01*
X124059000Y-80591500D01*
X124059000Y-80341500D01*
X124079000Y-80341500D01*
X124079000Y-79740250D01*
X124333000Y-79740250D01*
X124333000Y-80341500D01*
X125132250Y-80341500D01*
X125291000Y-80182750D01*
X125291000Y-80090191D01*
X125194327Y-79856802D01*
X125015699Y-79678173D01*
X124782310Y-79581500D01*
X124491750Y-79581500D01*
X124333000Y-79740250D01*
X124079000Y-79740250D01*
X123920250Y-79581500D01*
X123629690Y-79581500D01*
X123396301Y-79678173D01*
X123217673Y-79856802D01*
X123144722Y-80032920D01*
X122451500Y-79339698D01*
X122451500Y-77524940D01*
X122466500Y-77524940D01*
X122701817Y-77480662D01*
X122917941Y-77341590D01*
X123062931Y-77129390D01*
X123091664Y-76987500D01*
X128239758Y-76987500D01*
X128263338Y-77112817D01*
X128402410Y-77328941D01*
X128614610Y-77473931D01*
X128866500Y-77524940D01*
X130416500Y-77524940D01*
X130651817Y-77480662D01*
X130867941Y-77341590D01*
X131012931Y-77129390D01*
X131063940Y-76877500D01*
X131063940Y-75577500D01*
X131019662Y-75342183D01*
X130880590Y-75126059D01*
X130668390Y-74981069D01*
X130416500Y-74930060D01*
X128866500Y-74930060D01*
X128631183Y-74974338D01*
X128415059Y-75113410D01*
X128270069Y-75325610D01*
X128241336Y-75467500D01*
X123093242Y-75467500D01*
X123069662Y-75342183D01*
X122930590Y-75126059D01*
X122718390Y-74981069D01*
X122466500Y-74930060D01*
X120916500Y-74930060D01*
X120681183Y-74974338D01*
X120465059Y-75113410D01*
X120320069Y-75325610D01*
X120269060Y-75577500D01*
X120269060Y-76877500D01*
X120313338Y-77112817D01*
X120452410Y-77328941D01*
X120664610Y-77473931D01*
X120916500Y-77524940D01*
X120931500Y-77524940D01*
X120931500Y-79654500D01*
X120989352Y-79945339D01*
X121154099Y-80191901D01*
X122958457Y-81996259D01*
X122805299Y-81932662D01*
X122433333Y-81932338D01*
X122089557Y-82074383D01*
X121826308Y-82337173D01*
X121683662Y-82680701D01*
X121683338Y-83052667D01*
X121825383Y-83396443D01*
X121827000Y-83398063D01*
X121827000Y-83964560D01*
X121512000Y-83964560D01*
X121276683Y-84008838D01*
X121060559Y-84147910D01*
X120915569Y-84360110D01*
X120864560Y-84612000D01*
X120864560Y-85939560D01*
X119537000Y-85939560D01*
X119301683Y-85983838D01*
X119118054Y-86102000D01*
X118941500Y-86102000D01*
X118650661Y-86159852D01*
X118404099Y-86324599D01*
X118160820Y-86567878D01*
X118115333Y-86567838D01*
X117771557Y-86709883D01*
X117508308Y-86972673D01*
X117365662Y-87316201D01*
X117365425Y-87588623D01*
X116838000Y-87061198D01*
X116838000Y-86022940D01*
X116878000Y-86022940D01*
X117113317Y-85978662D01*
X117329441Y-85839590D01*
X117474431Y-85627390D01*
X117525440Y-85375500D01*
X117525440Y-84375500D01*
X117481162Y-84140183D01*
X117342090Y-83924059D01*
X117129890Y-83779069D01*
X116878000Y-83728060D01*
X115278000Y-83728060D01*
X115042683Y-83772338D01*
X114826559Y-83911410D01*
X114681569Y-84123610D01*
X114630560Y-84375500D01*
X114630560Y-85375500D01*
X114674838Y-85610817D01*
X114813910Y-85826941D01*
X115026110Y-85971931D01*
X115278000Y-86022940D01*
X115318000Y-86022940D01*
X115318000Y-87376000D01*
X115375852Y-87666839D01*
X115540599Y-87913401D01*
X117426599Y-89799401D01*
X117673161Y-89964148D01*
X117890029Y-90007286D01*
X117873662Y-90046701D01*
X117873338Y-90418667D01*
X118015383Y-90762443D01*
X118154697Y-90902000D01*
X117503802Y-90902000D01*
X117165401Y-90563599D01*
X116918839Y-90398852D01*
X116893159Y-90393744D01*
X116911940Y-90301000D01*
X116911940Y-89701000D01*
X116867662Y-89465683D01*
X116728590Y-89249559D01*
X116516390Y-89104569D01*
X116264500Y-89053560D01*
X116036362Y-89053560D01*
X115679622Y-88696820D01*
X115679662Y-88651333D01*
X115537617Y-88307557D01*
X115274827Y-88044308D01*
X114931299Y-87901662D01*
X114559333Y-87901338D01*
X114215557Y-88043383D01*
X113952308Y-88306173D01*
X113809662Y-88649701D01*
X113809338Y-89021667D01*
X113951383Y-89365443D01*
X114214173Y-89628692D01*
X114557701Y-89771338D01*
X114604577Y-89771379D01*
X115117060Y-90283862D01*
X115117060Y-90301000D01*
X115124587Y-90341000D01*
X114910802Y-90341000D01*
X111806730Y-87236928D01*
X111806730Y-84679790D01*
X111762452Y-84444473D01*
X111623380Y-84228349D01*
X111411180Y-84083359D01*
X111159290Y-84032350D01*
X109058710Y-84032350D01*
X108823393Y-84076628D01*
X108607269Y-84215700D01*
X108462279Y-84427900D01*
X108411270Y-84679790D01*
X108411270Y-90280490D01*
X108455548Y-90515807D01*
X108594620Y-90731931D01*
X108806820Y-90876921D01*
X109058710Y-90927930D01*
X111159290Y-90927930D01*
X111394607Y-90883652D01*
X111610731Y-90744580D01*
X111755721Y-90532380D01*
X111806730Y-90280490D01*
X111806730Y-89386532D01*
X114058599Y-91638401D01*
X114258537Y-91771995D01*
X114241661Y-91775352D01*
X113995099Y-91940099D01*
X111767291Y-94167907D01*
X111762452Y-94142193D01*
X111623380Y-93926069D01*
X111411180Y-93781079D01*
X111159290Y-93730070D01*
X109058710Y-93730070D01*
X108823393Y-93774348D01*
X108607269Y-93913420D01*
X108462279Y-94125620D01*
X108411270Y-94377510D01*
X108411270Y-99978210D01*
X108455548Y-100213527D01*
X108594620Y-100429651D01*
X108806820Y-100574641D01*
X109058710Y-100625650D01*
X111159290Y-100625650D01*
X111394607Y-100581372D01*
X111610731Y-100442300D01*
X111755721Y-100230100D01*
X111806730Y-99978210D01*
X111806730Y-96278072D01*
X114847302Y-93237500D01*
X115125160Y-93237500D01*
X115117060Y-93277500D01*
X115117060Y-93877500D01*
X115161338Y-94112817D01*
X115254500Y-94257595D01*
X115254500Y-94497259D01*
X115095308Y-94656173D01*
X114952662Y-94999701D01*
X114952338Y-95371667D01*
X115094383Y-95715443D01*
X115357173Y-95978692D01*
X115700701Y-96121338D01*
X116072667Y-96121662D01*
X116416443Y-95979617D01*
X116679692Y-95716827D01*
X116822338Y-95373299D01*
X116822662Y-95001333D01*
X116774500Y-94884772D01*
X116774500Y-94255886D01*
X116860931Y-94129390D01*
X116911940Y-93877500D01*
X116911940Y-93277500D01*
X116904413Y-93237500D01*
X119144710Y-93237500D01*
X119285110Y-93333431D01*
X119537000Y-93384440D01*
X120864560Y-93384440D01*
X120864560Y-94712000D01*
X120908838Y-94947317D01*
X121027000Y-95130946D01*
X121027000Y-95646137D01*
X120937308Y-95735673D01*
X120794662Y-96079201D01*
X120794338Y-96451167D01*
X120936383Y-96794943D01*
X121199173Y-97058192D01*
X121286673Y-97094525D01*
X117572599Y-100808599D01*
X117407852Y-101055161D01*
X117398120Y-101104085D01*
X117050330Y-101336471D01*
X116725474Y-101822652D01*
X116611400Y-102396141D01*
X116611400Y-102454859D01*
X116725474Y-103028348D01*
X117050330Y-103514529D01*
X117321172Y-103695500D01*
X117050330Y-103876471D01*
X116725474Y-104362652D01*
X116611400Y-104936141D01*
X116611400Y-104994859D01*
X116725474Y-105568348D01*
X117036279Y-106033500D01*
X107771000Y-106033500D01*
X107771000Y-82161250D01*
X114643000Y-82161250D01*
X114643000Y-82501809D01*
X114739673Y-82735198D01*
X114918301Y-82913827D01*
X115151690Y-83010500D01*
X115792250Y-83010500D01*
X115951000Y-82851750D01*
X115951000Y-82002500D01*
X116205000Y-82002500D01*
X116205000Y-82851750D01*
X116363750Y-83010500D01*
X117004310Y-83010500D01*
X117237699Y-82913827D01*
X117416327Y-82735198D01*
X117513000Y-82501809D01*
X117513000Y-82161250D01*
X117354250Y-82002500D01*
X116205000Y-82002500D01*
X115951000Y-82002500D01*
X114801750Y-82002500D01*
X114643000Y-82161250D01*
X107771000Y-82161250D01*
X107771000Y-81249191D01*
X114643000Y-81249191D01*
X114643000Y-81589750D01*
X114801750Y-81748500D01*
X115951000Y-81748500D01*
X115951000Y-80899250D01*
X116205000Y-80899250D01*
X116205000Y-81748500D01*
X117354250Y-81748500D01*
X117513000Y-81589750D01*
X117513000Y-81249191D01*
X117416327Y-81015802D01*
X117237699Y-80837173D01*
X117004310Y-80740500D01*
X116363750Y-80740500D01*
X116205000Y-80899250D01*
X115951000Y-80899250D01*
X115792250Y-80740500D01*
X115151690Y-80740500D01*
X114918301Y-80837173D01*
X114739673Y-81015802D01*
X114643000Y-81249191D01*
X107771000Y-81249191D01*
X107771000Y-76962000D01*
X108108155Y-76962000D01*
X108233830Y-77593810D01*
X108591722Y-78129433D01*
X109127345Y-78487325D01*
X109759155Y-78613000D01*
X109823845Y-78613000D01*
X110455655Y-78487325D01*
X110991278Y-78129433D01*
X111165460Y-77868750D01*
X114802500Y-77868750D01*
X114802500Y-77961309D01*
X114899173Y-78194698D01*
X115077801Y-78373327D01*
X115311190Y-78470000D01*
X115601750Y-78470000D01*
X115760500Y-78311250D01*
X115760500Y-77710000D01*
X116014500Y-77710000D01*
X116014500Y-78311250D01*
X116173250Y-78470000D01*
X116463810Y-78470000D01*
X116697199Y-78373327D01*
X116875827Y-78194698D01*
X116972500Y-77961309D01*
X116972500Y-77868750D01*
X116813750Y-77710000D01*
X116014500Y-77710000D01*
X115760500Y-77710000D01*
X114961250Y-77710000D01*
X114802500Y-77868750D01*
X111165460Y-77868750D01*
X111349170Y-77593810D01*
X111474845Y-76962000D01*
X111349170Y-76330190D01*
X111124534Y-75993999D01*
X111167198Y-75976327D01*
X111345827Y-75797699D01*
X111442500Y-75564310D01*
X111442500Y-74707750D01*
X111283750Y-74549000D01*
X109918500Y-74549000D01*
X109918500Y-74569000D01*
X109664500Y-74569000D01*
X109664500Y-74549000D01*
X108299250Y-74549000D01*
X108140500Y-74707750D01*
X108140500Y-75564310D01*
X108237173Y-75797699D01*
X108415802Y-75976327D01*
X108458466Y-75993999D01*
X108233830Y-76330190D01*
X108108155Y-76962000D01*
X107771000Y-76962000D01*
X107771000Y-73279690D01*
X108140500Y-73279690D01*
X108140500Y-74136250D01*
X108299250Y-74295000D01*
X109664500Y-74295000D01*
X109664500Y-72929750D01*
X109918500Y-72929750D01*
X109918500Y-74295000D01*
X111283750Y-74295000D01*
X111442500Y-74136250D01*
X111442500Y-73279690D01*
X111345827Y-73046301D01*
X111167198Y-72867673D01*
X110933809Y-72771000D01*
X110077250Y-72771000D01*
X109918500Y-72929750D01*
X109664500Y-72929750D01*
X109505750Y-72771000D01*
X108649191Y-72771000D01*
X108415802Y-72867673D01*
X108237173Y-73046301D01*
X108140500Y-73279690D01*
X107771000Y-73279690D01*
X107771000Y-70687000D01*
X120414777Y-70687000D01*
X120320069Y-70825610D01*
X120320069Y-70825610D01*
G37*
X120320069Y-70825610D02*
X120269060Y-71077500D01*
X120269060Y-71566500D01*
X120196463Y-71566500D01*
X120164327Y-71534308D01*
X119820799Y-71391662D01*
X119448833Y-71391338D01*
X119105057Y-71533383D01*
X119071882Y-71566500D01*
X118817130Y-71566500D01*
X118817130Y-71426070D01*
X118772852Y-71190753D01*
X118633780Y-70974629D01*
X118421580Y-70829639D01*
X118169690Y-70778630D01*
X116572030Y-70778630D01*
X116336713Y-70822908D01*
X116120589Y-70961980D01*
X115975599Y-71174180D01*
X115951970Y-71290866D01*
X115933132Y-71190753D01*
X115794060Y-70974629D01*
X115581860Y-70829639D01*
X115329970Y-70778630D01*
X113732310Y-70778630D01*
X113496993Y-70822908D01*
X113280869Y-70961980D01*
X113135879Y-71174180D01*
X113084870Y-71426070D01*
X113084870Y-73226930D01*
X113129148Y-73462247D01*
X113268220Y-73678371D01*
X113480420Y-73823361D01*
X113732310Y-73874370D01*
X113771140Y-73874370D01*
X113771140Y-74399140D01*
X113828992Y-74689979D01*
X113993739Y-74936541D01*
X114807260Y-75750062D01*
X114790060Y-75835000D01*
X114790060Y-76335000D01*
X114834338Y-76570317D01*
X114973410Y-76786441D01*
X115041506Y-76832969D01*
X114899173Y-76975302D01*
X114802500Y-77208691D01*
X114802500Y-77301250D01*
X114961250Y-77460000D01*
X115760500Y-77460000D01*
X115760500Y-77438000D01*
X116014500Y-77438000D01*
X116014500Y-77460000D01*
X116813750Y-77460000D01*
X116972500Y-77301250D01*
X116972500Y-77208691D01*
X116875827Y-76975302D01*
X116734590Y-76834064D01*
X116788941Y-76799090D01*
X116933931Y-76586890D01*
X116984940Y-76335000D01*
X116984940Y-75835000D01*
X116940662Y-75599683D01*
X116801590Y-75383559D01*
X116589390Y-75238569D01*
X116408801Y-75201999D01*
X115291140Y-74084338D01*
X115291140Y-73874370D01*
X115329970Y-73874370D01*
X115565287Y-73830092D01*
X115781411Y-73691020D01*
X115926401Y-73478820D01*
X115950030Y-73362134D01*
X115968868Y-73462247D01*
X116107940Y-73678371D01*
X116320140Y-73823361D01*
X116572030Y-73874370D01*
X118169690Y-73874370D01*
X118405007Y-73830092D01*
X118621131Y-73691020D01*
X118766121Y-73478820D01*
X118817130Y-73226930D01*
X118817130Y-73086500D01*
X119071537Y-73086500D01*
X119103673Y-73118692D01*
X119447201Y-73261338D01*
X119819167Y-73261662D01*
X120162943Y-73119617D01*
X120196118Y-73086500D01*
X121092500Y-73086500D01*
X121383339Y-73028648D01*
X121388888Y-73024940D01*
X122466500Y-73024940D01*
X122701817Y-72980662D01*
X122917941Y-72841590D01*
X123062931Y-72629390D01*
X123091664Y-72487500D01*
X128239758Y-72487500D01*
X128263338Y-72612817D01*
X128402410Y-72828941D01*
X128614610Y-72973931D01*
X128866500Y-73024940D01*
X130416500Y-73024940D01*
X130651817Y-72980662D01*
X130867941Y-72841590D01*
X131012931Y-72629390D01*
X131063940Y-72377500D01*
X131063940Y-71077500D01*
X131019662Y-70842183D01*
X130919804Y-70687000D01*
X134225008Y-70687000D01*
X134214069Y-70703010D01*
X134163060Y-70954900D01*
X134163060Y-72682100D01*
X134207338Y-72917417D01*
X134346410Y-73133541D01*
X134558610Y-73278531D01*
X134599939Y-73286900D01*
X134582085Y-73298830D01*
X134381852Y-73598500D01*
X132016500Y-73598500D01*
X131938090Y-73614097D01*
X131640833Y-73613838D01*
X131297057Y-73755883D01*
X131033808Y-74018673D01*
X130891162Y-74362201D01*
X130890838Y-74734167D01*
X131032883Y-75077943D01*
X131295673Y-75341192D01*
X131639201Y-75483838D01*
X132011167Y-75484162D01*
X132354943Y-75342117D01*
X132578951Y-75118500D01*
X134381852Y-75118500D01*
X134582085Y-75418170D01*
X134896866Y-75628500D01*
X134582085Y-75838830D01*
X134257229Y-76325011D01*
X134143155Y-76898500D01*
X134257229Y-77471989D01*
X134582085Y-77958170D01*
X135068266Y-78283026D01*
X135641755Y-78397100D01*
X136011245Y-78397100D01*
X136584734Y-78283026D01*
X137070915Y-77958170D01*
X137395771Y-77471989D01*
X137509845Y-76898500D01*
X137395771Y-76325011D01*
X137070915Y-75838830D01*
X136756134Y-75628500D01*
X137070915Y-75418170D01*
X137395771Y-74931989D01*
X137509845Y-74358500D01*
X137395771Y-73785011D01*
X137070915Y-73298830D01*
X137056587Y-73289257D01*
X137077817Y-73285262D01*
X137293941Y-73146190D01*
X137438931Y-72933990D01*
X137489940Y-72682100D01*
X137489940Y-70954900D01*
X137445662Y-70719583D01*
X137424695Y-70687000D01*
X141316452Y-70687000D01*
X141275060Y-70891400D01*
X141275060Y-70995000D01*
X139573000Y-70995000D01*
X139282161Y-71052852D01*
X139035599Y-71217599D01*
X138019599Y-72233599D01*
X137854852Y-72480161D01*
X137797000Y-72771000D01*
X137797000Y-78171198D01*
X136464198Y-79504000D01*
X134157999Y-79504000D01*
X134158162Y-79316833D01*
X134016117Y-78973057D01*
X133753327Y-78709808D01*
X133409799Y-78567162D01*
X133037833Y-78566838D01*
X132694057Y-78708883D01*
X132660882Y-78742000D01*
X130048000Y-78742000D01*
X129757161Y-78799852D01*
X129510599Y-78964599D01*
X124947000Y-83528198D01*
X124947000Y-82783831D01*
X125107441Y-82680590D01*
X125252431Y-82468390D01*
X125303440Y-82216500D01*
X125303440Y-81716500D01*
X125259162Y-81481183D01*
X125120090Y-81265059D01*
X125051994Y-81218531D01*
X125194327Y-81076198D01*
X125291000Y-80842809D01*
X125291000Y-80750250D01*
X125132250Y-80591500D01*
X124333000Y-80591500D01*
X124333000Y-80613500D01*
X124079000Y-80613500D01*
X124079000Y-80591500D01*
X124059000Y-80591500D01*
X124059000Y-80341500D01*
X124079000Y-80341500D01*
X124079000Y-79740250D01*
X124333000Y-79740250D01*
X124333000Y-80341500D01*
X125132250Y-80341500D01*
X125291000Y-80182750D01*
X125291000Y-80090191D01*
X125194327Y-79856802D01*
X125015699Y-79678173D01*
X124782310Y-79581500D01*
X124491750Y-79581500D01*
X124333000Y-79740250D01*
X124079000Y-79740250D01*
X123920250Y-79581500D01*
X123629690Y-79581500D01*
X123396301Y-79678173D01*
X123217673Y-79856802D01*
X123144722Y-80032920D01*
X122451500Y-79339698D01*
X122451500Y-77524940D01*
X122466500Y-77524940D01*
X122701817Y-77480662D01*
X122917941Y-77341590D01*
X123062931Y-77129390D01*
X123091664Y-76987500D01*
X128239758Y-76987500D01*
X128263338Y-77112817D01*
X128402410Y-77328941D01*
X128614610Y-77473931D01*
X128866500Y-77524940D01*
X130416500Y-77524940D01*
X130651817Y-77480662D01*
X130867941Y-77341590D01*
X131012931Y-77129390D01*
X131063940Y-76877500D01*
X131063940Y-75577500D01*
X131019662Y-75342183D01*
X130880590Y-75126059D01*
X130668390Y-74981069D01*
X130416500Y-74930060D01*
X128866500Y-74930060D01*
X128631183Y-74974338D01*
X128415059Y-75113410D01*
X128270069Y-75325610D01*
X128241336Y-75467500D01*
X123093242Y-75467500D01*
X123069662Y-75342183D01*
X122930590Y-75126059D01*
X122718390Y-74981069D01*
X122466500Y-74930060D01*
X120916500Y-74930060D01*
X120681183Y-74974338D01*
X120465059Y-75113410D01*
X120320069Y-75325610D01*
X120269060Y-75577500D01*
X120269060Y-76877500D01*
X120313338Y-77112817D01*
X120452410Y-77328941D01*
X120664610Y-77473931D01*
X120916500Y-77524940D01*
X120931500Y-77524940D01*
X120931500Y-79654500D01*
X120989352Y-79945339D01*
X121154099Y-80191901D01*
X122958457Y-81996259D01*
X122805299Y-81932662D01*
X122433333Y-81932338D01*
X122089557Y-82074383D01*
X121826308Y-82337173D01*
X121683662Y-82680701D01*
X121683338Y-83052667D01*
X121825383Y-83396443D01*
X121827000Y-83398063D01*
X121827000Y-83964560D01*
X121512000Y-83964560D01*
X121276683Y-84008838D01*
X121060559Y-84147910D01*
X120915569Y-84360110D01*
X120864560Y-84612000D01*
X120864560Y-85939560D01*
X119537000Y-85939560D01*
X119301683Y-85983838D01*
X119118054Y-86102000D01*
X118941500Y-86102000D01*
X118650661Y-86159852D01*
X118404099Y-86324599D01*
X118160820Y-86567878D01*
X118115333Y-86567838D01*
X117771557Y-86709883D01*
X117508308Y-86972673D01*
X117365662Y-87316201D01*
X117365425Y-87588623D01*
X116838000Y-87061198D01*
X116838000Y-86022940D01*
X116878000Y-86022940D01*
X117113317Y-85978662D01*
X117329441Y-85839590D01*
X117474431Y-85627390D01*
X117525440Y-85375500D01*
X117525440Y-84375500D01*
X117481162Y-84140183D01*
X117342090Y-83924059D01*
X117129890Y-83779069D01*
X116878000Y-83728060D01*
X115278000Y-83728060D01*
X115042683Y-83772338D01*
X114826559Y-83911410D01*
X114681569Y-84123610D01*
X114630560Y-84375500D01*
X114630560Y-85375500D01*
X114674838Y-85610817D01*
X114813910Y-85826941D01*
X115026110Y-85971931D01*
X115278000Y-86022940D01*
X115318000Y-86022940D01*
X115318000Y-87376000D01*
X115375852Y-87666839D01*
X115540599Y-87913401D01*
X117426599Y-89799401D01*
X117673161Y-89964148D01*
X117890029Y-90007286D01*
X117873662Y-90046701D01*
X117873338Y-90418667D01*
X118015383Y-90762443D01*
X118154697Y-90902000D01*
X117503802Y-90902000D01*
X117165401Y-90563599D01*
X116918839Y-90398852D01*
X116893159Y-90393744D01*
X116911940Y-90301000D01*
X116911940Y-89701000D01*
X116867662Y-89465683D01*
X116728590Y-89249559D01*
X116516390Y-89104569D01*
X116264500Y-89053560D01*
X116036362Y-89053560D01*
X115679622Y-88696820D01*
X115679662Y-88651333D01*
X115537617Y-88307557D01*
X115274827Y-88044308D01*
X114931299Y-87901662D01*
X114559333Y-87901338D01*
X114215557Y-88043383D01*
X113952308Y-88306173D01*
X113809662Y-88649701D01*
X113809338Y-89021667D01*
X113951383Y-89365443D01*
X114214173Y-89628692D01*
X114557701Y-89771338D01*
X114604577Y-89771379D01*
X115117060Y-90283862D01*
X115117060Y-90301000D01*
X115124587Y-90341000D01*
X114910802Y-90341000D01*
X111806730Y-87236928D01*
X111806730Y-84679790D01*
X111762452Y-84444473D01*
X111623380Y-84228349D01*
X111411180Y-84083359D01*
X111159290Y-84032350D01*
X109058710Y-84032350D01*
X108823393Y-84076628D01*
X108607269Y-84215700D01*
X108462279Y-84427900D01*
X108411270Y-84679790D01*
X108411270Y-90280490D01*
X108455548Y-90515807D01*
X108594620Y-90731931D01*
X108806820Y-90876921D01*
X109058710Y-90927930D01*
X111159290Y-90927930D01*
X111394607Y-90883652D01*
X111610731Y-90744580D01*
X111755721Y-90532380D01*
X111806730Y-90280490D01*
X111806730Y-89386532D01*
X114058599Y-91638401D01*
X114258537Y-91771995D01*
X114241661Y-91775352D01*
X113995099Y-91940099D01*
X111767291Y-94167907D01*
X111762452Y-94142193D01*
X111623380Y-93926069D01*
X111411180Y-93781079D01*
X111159290Y-93730070D01*
X109058710Y-93730070D01*
X108823393Y-93774348D01*
X108607269Y-93913420D01*
X108462279Y-94125620D01*
X108411270Y-94377510D01*
X108411270Y-99978210D01*
X108455548Y-100213527D01*
X108594620Y-100429651D01*
X108806820Y-100574641D01*
X109058710Y-100625650D01*
X111159290Y-100625650D01*
X111394607Y-100581372D01*
X111610731Y-100442300D01*
X111755721Y-100230100D01*
X111806730Y-99978210D01*
X111806730Y-96278072D01*
X114847302Y-93237500D01*
X115125160Y-93237500D01*
X115117060Y-93277500D01*
X115117060Y-93877500D01*
X115161338Y-94112817D01*
X115254500Y-94257595D01*
X115254500Y-94497259D01*
X115095308Y-94656173D01*
X114952662Y-94999701D01*
X114952338Y-95371667D01*
X115094383Y-95715443D01*
X115357173Y-95978692D01*
X115700701Y-96121338D01*
X116072667Y-96121662D01*
X116416443Y-95979617D01*
X116679692Y-95716827D01*
X116822338Y-95373299D01*
X116822662Y-95001333D01*
X116774500Y-94884772D01*
X116774500Y-94255886D01*
X116860931Y-94129390D01*
X116911940Y-93877500D01*
X116911940Y-93277500D01*
X116904413Y-93237500D01*
X119144710Y-93237500D01*
X119285110Y-93333431D01*
X119537000Y-93384440D01*
X120864560Y-93384440D01*
X120864560Y-94712000D01*
X120908838Y-94947317D01*
X121027000Y-95130946D01*
X121027000Y-95646137D01*
X120937308Y-95735673D01*
X120794662Y-96079201D01*
X120794338Y-96451167D01*
X120936383Y-96794943D01*
X121199173Y-97058192D01*
X121286673Y-97094525D01*
X117572599Y-100808599D01*
X117407852Y-101055161D01*
X117398120Y-101104085D01*
X117050330Y-101336471D01*
X116725474Y-101822652D01*
X116611400Y-102396141D01*
X116611400Y-102454859D01*
X116725474Y-103028348D01*
X117050330Y-103514529D01*
X117321172Y-103695500D01*
X117050330Y-103876471D01*
X116725474Y-104362652D01*
X116611400Y-104936141D01*
X116611400Y-104994859D01*
X116725474Y-105568348D01*
X117036279Y-106033500D01*
X107771000Y-106033500D01*
X107771000Y-82161250D01*
X114643000Y-82161250D01*
X114643000Y-82501809D01*
X114739673Y-82735198D01*
X114918301Y-82913827D01*
X115151690Y-83010500D01*
X115792250Y-83010500D01*
X115951000Y-82851750D01*
X115951000Y-82002500D01*
X116205000Y-82002500D01*
X116205000Y-82851750D01*
X116363750Y-83010500D01*
X117004310Y-83010500D01*
X117237699Y-82913827D01*
X117416327Y-82735198D01*
X117513000Y-82501809D01*
X117513000Y-82161250D01*
X117354250Y-82002500D01*
X116205000Y-82002500D01*
X115951000Y-82002500D01*
X114801750Y-82002500D01*
X114643000Y-82161250D01*
X107771000Y-82161250D01*
X107771000Y-81249191D01*
X114643000Y-81249191D01*
X114643000Y-81589750D01*
X114801750Y-81748500D01*
X115951000Y-81748500D01*
X115951000Y-80899250D01*
X116205000Y-80899250D01*
X116205000Y-81748500D01*
X117354250Y-81748500D01*
X117513000Y-81589750D01*
X117513000Y-81249191D01*
X117416327Y-81015802D01*
X117237699Y-80837173D01*
X117004310Y-80740500D01*
X116363750Y-80740500D01*
X116205000Y-80899250D01*
X115951000Y-80899250D01*
X115792250Y-80740500D01*
X115151690Y-80740500D01*
X114918301Y-80837173D01*
X114739673Y-81015802D01*
X114643000Y-81249191D01*
X107771000Y-81249191D01*
X107771000Y-76962000D01*
X108108155Y-76962000D01*
X108233830Y-77593810D01*
X108591722Y-78129433D01*
X109127345Y-78487325D01*
X109759155Y-78613000D01*
X109823845Y-78613000D01*
X110455655Y-78487325D01*
X110991278Y-78129433D01*
X111165460Y-77868750D01*
X114802500Y-77868750D01*
X114802500Y-77961309D01*
X114899173Y-78194698D01*
X115077801Y-78373327D01*
X115311190Y-78470000D01*
X115601750Y-78470000D01*
X115760500Y-78311250D01*
X115760500Y-77710000D01*
X116014500Y-77710000D01*
X116014500Y-78311250D01*
X116173250Y-78470000D01*
X116463810Y-78470000D01*
X116697199Y-78373327D01*
X116875827Y-78194698D01*
X116972500Y-77961309D01*
X116972500Y-77868750D01*
X116813750Y-77710000D01*
X116014500Y-77710000D01*
X115760500Y-77710000D01*
X114961250Y-77710000D01*
X114802500Y-77868750D01*
X111165460Y-77868750D01*
X111349170Y-77593810D01*
X111474845Y-76962000D01*
X111349170Y-76330190D01*
X111124534Y-75993999D01*
X111167198Y-75976327D01*
X111345827Y-75797699D01*
X111442500Y-75564310D01*
X111442500Y-74707750D01*
X111283750Y-74549000D01*
X109918500Y-74549000D01*
X109918500Y-74569000D01*
X109664500Y-74569000D01*
X109664500Y-74549000D01*
X108299250Y-74549000D01*
X108140500Y-74707750D01*
X108140500Y-75564310D01*
X108237173Y-75797699D01*
X108415802Y-75976327D01*
X108458466Y-75993999D01*
X108233830Y-76330190D01*
X108108155Y-76962000D01*
X107771000Y-76962000D01*
X107771000Y-73279690D01*
X108140500Y-73279690D01*
X108140500Y-74136250D01*
X108299250Y-74295000D01*
X109664500Y-74295000D01*
X109664500Y-72929750D01*
X109918500Y-72929750D01*
X109918500Y-74295000D01*
X111283750Y-74295000D01*
X111442500Y-74136250D01*
X111442500Y-73279690D01*
X111345827Y-73046301D01*
X111167198Y-72867673D01*
X110933809Y-72771000D01*
X110077250Y-72771000D01*
X109918500Y-72929750D01*
X109664500Y-72929750D01*
X109505750Y-72771000D01*
X108649191Y-72771000D01*
X108415802Y-72867673D01*
X108237173Y-73046301D01*
X108140500Y-73279690D01*
X107771000Y-73279690D01*
X107771000Y-70687000D01*
X120414777Y-70687000D01*
X120320069Y-70825610D01*
G36*
X133384099Y-94580901D02*
X133630660Y-94745648D01*
X133678914Y-94755246D01*
X133921500Y-94803500D01*
X139553738Y-94803500D01*
X139753971Y-95103170D01*
X140240152Y-95428026D01*
X140813641Y-95542100D01*
X140872359Y-95542100D01*
X141445848Y-95428026D01*
X141932029Y-95103170D01*
X142113000Y-94832328D01*
X142293971Y-95103170D01*
X142780152Y-95428026D01*
X143353641Y-95542100D01*
X143412359Y-95542100D01*
X143985848Y-95428026D01*
X144472029Y-95103170D01*
X144578000Y-94944573D01*
X144578000Y-101539438D01*
X144569670Y-101526971D01*
X144083489Y-101202115D01*
X143510000Y-101088041D01*
X143000000Y-101189486D01*
X143000000Y-100774500D01*
X142942148Y-100483661D01*
X142777401Y-100237099D01*
X140427901Y-97887599D01*
X140181339Y-97722852D01*
X139890500Y-97665000D01*
X135245963Y-97665000D01*
X135213827Y-97632808D01*
X134870299Y-97490162D01*
X134498333Y-97489838D01*
X134154557Y-97631883D01*
X133891308Y-97894673D01*
X133748662Y-98238201D01*
X133748338Y-98610167D01*
X133890383Y-98953943D01*
X134153173Y-99217192D01*
X134496701Y-99359838D01*
X134868667Y-99360162D01*
X135212443Y-99218117D01*
X135245618Y-99185000D01*
X137998778Y-99185000D01*
X137828308Y-99355173D01*
X137685662Y-99698701D01*
X137685338Y-100070667D01*
X137827383Y-100414443D01*
X138090173Y-100677692D01*
X138433701Y-100820338D01*
X138480577Y-100820379D01*
X138844016Y-101183818D01*
X138789026Y-101161042D01*
X138557000Y-101282183D01*
X138557000Y-102489000D01*
X138577000Y-102489000D01*
X138577000Y-102743000D01*
X138557000Y-102743000D01*
X138557000Y-102763000D01*
X138303000Y-102763000D01*
X138303000Y-102743000D01*
X138283000Y-102743000D01*
X138283000Y-102489000D01*
X138303000Y-102489000D01*
X138303000Y-101282183D01*
X138070974Y-101161042D01*
X137655053Y-101333312D01*
X137223179Y-101727510D01*
X136975032Y-102256973D01*
X137029442Y-102361742D01*
X132935949Y-98268249D01*
X132935949Y-94647449D01*
X132878097Y-94356610D01*
X132713350Y-94110048D01*
X130527901Y-91924599D01*
X130284440Y-91761924D01*
X130284440Y-91622000D01*
X130425198Y-91622000D01*
X133384099Y-94580901D01*
X133384099Y-94580901D01*
G37*
X133384099Y-94580901D02*
X133630660Y-94745648D01*
X133678914Y-94755246D01*
X133921500Y-94803500D01*
X139553738Y-94803500D01*
X139753971Y-95103170D01*
X140240152Y-95428026D01*
X140813641Y-95542100D01*
X140872359Y-95542100D01*
X141445848Y-95428026D01*
X141932029Y-95103170D01*
X142113000Y-94832328D01*
X142293971Y-95103170D01*
X142780152Y-95428026D01*
X143353641Y-95542100D01*
X143412359Y-95542100D01*
X143985848Y-95428026D01*
X144472029Y-95103170D01*
X144578000Y-94944573D01*
X144578000Y-101539438D01*
X144569670Y-101526971D01*
X144083489Y-101202115D01*
X143510000Y-101088041D01*
X143000000Y-101189486D01*
X143000000Y-100774500D01*
X142942148Y-100483661D01*
X142777401Y-100237099D01*
X140427901Y-97887599D01*
X140181339Y-97722852D01*
X139890500Y-97665000D01*
X135245963Y-97665000D01*
X135213827Y-97632808D01*
X134870299Y-97490162D01*
X134498333Y-97489838D01*
X134154557Y-97631883D01*
X133891308Y-97894673D01*
X133748662Y-98238201D01*
X133748338Y-98610167D01*
X133890383Y-98953943D01*
X134153173Y-99217192D01*
X134496701Y-99359838D01*
X134868667Y-99360162D01*
X135212443Y-99218117D01*
X135245618Y-99185000D01*
X137998778Y-99185000D01*
X137828308Y-99355173D01*
X137685662Y-99698701D01*
X137685338Y-100070667D01*
X137827383Y-100414443D01*
X138090173Y-100677692D01*
X138433701Y-100820338D01*
X138480577Y-100820379D01*
X138844016Y-101183818D01*
X138789026Y-101161042D01*
X138557000Y-101282183D01*
X138557000Y-102489000D01*
X138577000Y-102489000D01*
X138577000Y-102743000D01*
X138557000Y-102743000D01*
X138557000Y-102763000D01*
X138303000Y-102763000D01*
X138303000Y-102743000D01*
X138283000Y-102743000D01*
X138283000Y-102489000D01*
X138303000Y-102489000D01*
X138303000Y-101282183D01*
X138070974Y-101161042D01*
X137655053Y-101333312D01*
X137223179Y-101727510D01*
X136975032Y-102256973D01*
X137029442Y-102361742D01*
X132935949Y-98268249D01*
X132935949Y-94647449D01*
X132878097Y-94356610D01*
X132713350Y-94110048D01*
X130527901Y-91924599D01*
X130284440Y-91761924D01*
X130284440Y-91622000D01*
X130425198Y-91622000D01*
X133384099Y-94580901D01*
G36*
X141275060Y-72618600D02*
X141319338Y-72853917D01*
X141458410Y-73070041D01*
X141670610Y-73215031D01*
X141765427Y-73234232D01*
X141587768Y-73392964D01*
X141333791Y-73920209D01*
X141331142Y-73935974D01*
X141452283Y-74168000D01*
X142811500Y-74168000D01*
X142811500Y-74148000D01*
X143065500Y-74148000D01*
X143065500Y-74168000D01*
X143085500Y-74168000D01*
X143085500Y-74422000D01*
X143065500Y-74422000D01*
X143065500Y-74442000D01*
X142811500Y-74442000D01*
X142811500Y-74422000D01*
X141452283Y-74422000D01*
X141331142Y-74654026D01*
X141333791Y-74669791D01*
X141587768Y-75197036D01*
X142003569Y-75568539D01*
X141694085Y-75775330D01*
X141369229Y-76261511D01*
X141255155Y-76835000D01*
X141369229Y-77408489D01*
X141694085Y-77894670D01*
X142008866Y-78105000D01*
X141694085Y-78315330D01*
X141369229Y-78801511D01*
X141255155Y-79375000D01*
X141369229Y-79948489D01*
X141694085Y-80434670D01*
X142180266Y-80759526D01*
X142753755Y-80873600D01*
X143123245Y-80873600D01*
X143696734Y-80759526D01*
X144182915Y-80434670D01*
X144507771Y-79948489D01*
X144578000Y-79595424D01*
X144578000Y-88062427D01*
X144472029Y-87903830D01*
X143985848Y-87578974D01*
X143639354Y-87510052D01*
X142453901Y-86324599D01*
X142207339Y-86159852D01*
X141916500Y-86102000D01*
X130051975Y-86102000D01*
X129888890Y-85990569D01*
X129637000Y-85939560D01*
X128309440Y-85939560D01*
X128309440Y-84612000D01*
X128265162Y-84376683D01*
X128126090Y-84160559D01*
X127913890Y-84015569D01*
X127662000Y-83964560D01*
X127422242Y-83964560D01*
X130362802Y-81024000D01*
X136779000Y-81024000D01*
X137069839Y-80966148D01*
X137316401Y-80801401D01*
X139094401Y-79023401D01*
X139259148Y-78776839D01*
X139317000Y-78486000D01*
X139317000Y-73085802D01*
X139887802Y-72515000D01*
X141275060Y-72515000D01*
X141275060Y-72618600D01*
X141275060Y-72618600D01*
G37*
X141275060Y-72618600D02*
X141319338Y-72853917D01*
X141458410Y-73070041D01*
X141670610Y-73215031D01*
X141765427Y-73234232D01*
X141587768Y-73392964D01*
X141333791Y-73920209D01*
X141331142Y-73935974D01*
X141452283Y-74168000D01*
X142811500Y-74168000D01*
X142811500Y-74148000D01*
X143065500Y-74148000D01*
X143065500Y-74168000D01*
X143085500Y-74168000D01*
X143085500Y-74422000D01*
X143065500Y-74422000D01*
X143065500Y-74442000D01*
X142811500Y-74442000D01*
X142811500Y-74422000D01*
X141452283Y-74422000D01*
X141331142Y-74654026D01*
X141333791Y-74669791D01*
X141587768Y-75197036D01*
X142003569Y-75568539D01*
X141694085Y-75775330D01*
X141369229Y-76261511D01*
X141255155Y-76835000D01*
X141369229Y-77408489D01*
X141694085Y-77894670D01*
X142008866Y-78105000D01*
X141694085Y-78315330D01*
X141369229Y-78801511D01*
X141255155Y-79375000D01*
X141369229Y-79948489D01*
X141694085Y-80434670D01*
X142180266Y-80759526D01*
X142753755Y-80873600D01*
X143123245Y-80873600D01*
X143696734Y-80759526D01*
X144182915Y-80434670D01*
X144507771Y-79948489D01*
X144578000Y-79595424D01*
X144578000Y-88062427D01*
X144472029Y-87903830D01*
X143985848Y-87578974D01*
X143639354Y-87510052D01*
X142453901Y-86324599D01*
X142207339Y-86159852D01*
X141916500Y-86102000D01*
X130051975Y-86102000D01*
X129888890Y-85990569D01*
X129637000Y-85939560D01*
X128309440Y-85939560D01*
X128309440Y-84612000D01*
X128265162Y-84376683D01*
X128126090Y-84160559D01*
X127913890Y-84015569D01*
X127662000Y-83964560D01*
X127422242Y-83964560D01*
X130362802Y-81024000D01*
X136779000Y-81024000D01*
X137069839Y-80966148D01*
X137316401Y-80801401D01*
X139094401Y-79023401D01*
X139259148Y-78776839D01*
X139317000Y-78486000D01*
X139317000Y-73085802D01*
X139887802Y-72515000D01*
X141275060Y-72515000D01*
X141275060Y-72618600D01*
M02*
