G04 #@! TF.FileFunction,Copper,L2,Bot,Signal*
%FSLAX46Y46*%
G04 Gerber Fmt 4.6, Leading zero omitted, Abs format (unit mm)*
G04 Created by KiCad (PCBNEW 4.0.4-stable) date 11/04/16 17:13:28*
%MOMM*%
%LPD*%
G01*
G04 APERTURE LIST*
%ADD10C,0.100000*%
%ADD11R,1.727200X1.727200*%
%ADD12O,1.727200X1.727200*%
%ADD13R,2.032000X1.727200*%
%ADD14O,2.032000X1.727200*%
%ADD15R,2.032000X2.032000*%
%ADD16O,2.032000X2.032000*%
%ADD17C,0.600000*%
%ADD18C,0.250000*%
%ADD19C,0.254000*%
G04 APERTURE END LIST*
D10*
D11*
X138430000Y-105156000D03*
D12*
X138430000Y-102616000D03*
X140970000Y-105156000D03*
X140970000Y-102616000D03*
X143510000Y-105156000D03*
X143510000Y-102616000D03*
D13*
X135826500Y-71818500D03*
D14*
X135826500Y-74358500D03*
X135826500Y-76898500D03*
D13*
X142938500Y-71755000D03*
D14*
X142938500Y-74295000D03*
X142938500Y-76835000D03*
X142938500Y-79375000D03*
D11*
X128270000Y-102425500D03*
D12*
X128270000Y-104965500D03*
X125730000Y-102425500D03*
X125730000Y-104965500D03*
X123190000Y-102425500D03*
X123190000Y-104965500D03*
X120650000Y-102425500D03*
X120650000Y-104965500D03*
X118110000Y-102425500D03*
X118110000Y-104965500D03*
D11*
X140843000Y-88963500D03*
D12*
X143383000Y-88963500D03*
X140843000Y-91503500D03*
X143383000Y-91503500D03*
X140843000Y-94043500D03*
X143383000Y-94043500D03*
D15*
X109791500Y-74422000D03*
D16*
X109791500Y-76962000D03*
D17*
X139001500Y-85280500D03*
X138366500Y-96075500D03*
X133604000Y-78105000D03*
X140525500Y-74231500D03*
X114744500Y-88836500D03*
X115887500Y-95186500D03*
X119634000Y-72326500D03*
X131127500Y-90043000D03*
X118681500Y-88519000D03*
X118808500Y-90233500D03*
X118300500Y-87503000D03*
X123825000Y-98933000D03*
X123507500Y-89789000D03*
X121729500Y-96266000D03*
X121729500Y-98933000D03*
X122555000Y-98044000D03*
X122682000Y-95694500D03*
X125095000Y-97155000D03*
X126809500Y-97853500D03*
X126873000Y-96583500D03*
X125095000Y-95885000D03*
X138620500Y-99885500D03*
X131000500Y-99250500D03*
X127190500Y-88074500D03*
X135890000Y-90995500D03*
X137668000Y-90233500D03*
X126301500Y-87312500D03*
X133223000Y-79502000D03*
X134683500Y-98425000D03*
X124333000Y-87693500D03*
X123444000Y-83312000D03*
X131826000Y-74549000D03*
X122618500Y-82867500D03*
X123380500Y-88519000D03*
D18*
X139001500Y-95440500D02*
X139001500Y-85280500D01*
X138366500Y-96075500D02*
X139001500Y-95440500D01*
X133985000Y-78486000D02*
X133604000Y-78105000D01*
X137350500Y-78486000D02*
X133985000Y-78486000D01*
X138303000Y-77533500D02*
X137350500Y-78486000D01*
X138303000Y-76454000D02*
X138303000Y-77533500D01*
X140525500Y-74231500D02*
X138303000Y-76454000D01*
X118808500Y-90233500D02*
X118745000Y-90233500D01*
X117792500Y-96583500D02*
X123190000Y-101981000D01*
X117792500Y-88011000D02*
X117792500Y-96583500D01*
X118300500Y-87503000D02*
X117792500Y-88011000D01*
X123190000Y-101981000D02*
X123190000Y-102425500D01*
X123825000Y-98933000D02*
X124009998Y-98748002D01*
X124009998Y-98748002D02*
X124009998Y-90291498D01*
X124009998Y-90291498D02*
X123507500Y-89789000D01*
X121729500Y-98933000D02*
X121729500Y-96266000D01*
X122555000Y-98044000D02*
X122682000Y-97917000D01*
X122682000Y-97917000D02*
X122682000Y-95694500D01*
X126111000Y-97155000D02*
X125095000Y-97155000D01*
X126809500Y-97853500D02*
X126111000Y-97155000D01*
X126873000Y-96583500D02*
X126174500Y-95885000D01*
X126174500Y-95885000D02*
X125095000Y-95885000D01*
X138620500Y-99885500D02*
X137985500Y-99250500D01*
X137985500Y-99250500D02*
X131000500Y-99250500D01*
X132969000Y-88074500D02*
X127190500Y-88074500D01*
X135890000Y-90995500D02*
X132969000Y-88074500D01*
X137668000Y-90233500D02*
X134747000Y-87312500D01*
X134747000Y-87312500D02*
X126301500Y-87312500D01*
X141605000Y-76835000D02*
X142938500Y-76835000D01*
X138938000Y-79502000D02*
X141605000Y-76835000D01*
X133223000Y-79502000D02*
X138938000Y-79502000D01*
X134683500Y-98425000D02*
X124333000Y-88074500D01*
X124333000Y-88074500D02*
X124333000Y-87693500D01*
X133032500Y-73660000D02*
X134874000Y-71818500D01*
X133032500Y-75628500D02*
X133032500Y-73660000D01*
X127571500Y-81089500D02*
X133032500Y-75628500D01*
X125666500Y-81089500D02*
X127571500Y-81089500D01*
X123444000Y-83312000D02*
X125666500Y-81089500D01*
X134874000Y-71818500D02*
X135826500Y-71818500D01*
X131826000Y-76073000D02*
X131826000Y-74549000D01*
X127259502Y-80639498D02*
X131826000Y-76073000D01*
X124846502Y-80639498D02*
X127259502Y-80639498D01*
X122618500Y-82867500D02*
X124846502Y-80639498D01*
X125730000Y-104965500D02*
X125603000Y-104965500D01*
X125603000Y-104965500D02*
X124460000Y-103822500D01*
X124460000Y-103822500D02*
X124460000Y-89598500D01*
X124460000Y-89598500D02*
X123380500Y-88519000D01*
D19*
G36*
X134214069Y-70703010D02*
X134163060Y-70954900D01*
X134163060Y-71454638D01*
X132495099Y-73122599D01*
X132330352Y-73369161D01*
X132272500Y-73660000D01*
X132272500Y-73722000D01*
X132012799Y-73614162D01*
X131640833Y-73613838D01*
X131297057Y-73755883D01*
X131033808Y-74018673D01*
X130891162Y-74362201D01*
X130890838Y-74734167D01*
X131032883Y-75077943D01*
X131066000Y-75111118D01*
X131066000Y-75758198D01*
X126944700Y-79879498D01*
X124846502Y-79879498D01*
X124555663Y-79937350D01*
X124309101Y-80102097D01*
X122478820Y-81932378D01*
X122433333Y-81932338D01*
X122089557Y-82074383D01*
X121826308Y-82337173D01*
X121683662Y-82680701D01*
X121683338Y-83052667D01*
X121825383Y-83396443D01*
X122088173Y-83659692D01*
X122431701Y-83802338D01*
X122635005Y-83802515D01*
X122650883Y-83840943D01*
X122913673Y-84104192D01*
X123257201Y-84246838D01*
X123629167Y-84247162D01*
X123972943Y-84105117D01*
X124236192Y-83842327D01*
X124378838Y-83498799D01*
X124378879Y-83451923D01*
X125981302Y-81849500D01*
X127571500Y-81849500D01*
X127862339Y-81791648D01*
X128108901Y-81626901D01*
X133569901Y-76165901D01*
X133734648Y-75919340D01*
X133792500Y-75628500D01*
X133792500Y-73974802D01*
X134517120Y-73250182D01*
X134558610Y-73278531D01*
X134599939Y-73286900D01*
X134582085Y-73298830D01*
X134257229Y-73785011D01*
X134143155Y-74358500D01*
X134257229Y-74931989D01*
X134582085Y-75418170D01*
X134891569Y-75624961D01*
X134475768Y-75996464D01*
X134221791Y-76523709D01*
X134219142Y-76539474D01*
X134340283Y-76771500D01*
X135699500Y-76771500D01*
X135699500Y-76751500D01*
X135953500Y-76751500D01*
X135953500Y-76771500D01*
X137312717Y-76771500D01*
X137433858Y-76539474D01*
X137431209Y-76523709D01*
X137177232Y-75996464D01*
X136761431Y-75624961D01*
X137070915Y-75418170D01*
X137395771Y-74931989D01*
X137509845Y-74358500D01*
X137395771Y-73785011D01*
X137070915Y-73298830D01*
X137056587Y-73289257D01*
X137077817Y-73285262D01*
X137293941Y-73146190D01*
X137438931Y-72933990D01*
X137489940Y-72682100D01*
X137489940Y-70954900D01*
X137445662Y-70719583D01*
X137424695Y-70687000D01*
X141316452Y-70687000D01*
X141275060Y-70891400D01*
X141275060Y-72618600D01*
X141319338Y-72853917D01*
X141458410Y-73070041D01*
X141670610Y-73215031D01*
X141711939Y-73223400D01*
X141694085Y-73235330D01*
X141369229Y-73721511D01*
X141355327Y-73791402D01*
X141318617Y-73702557D01*
X141055827Y-73439308D01*
X140712299Y-73296662D01*
X140340333Y-73296338D01*
X139996557Y-73438383D01*
X139733308Y-73701173D01*
X139590662Y-74044701D01*
X139590621Y-74091577D01*
X137765599Y-75916599D01*
X137600852Y-76163161D01*
X137543000Y-76454000D01*
X137543000Y-77218698D01*
X137378049Y-77383649D01*
X137431209Y-77273291D01*
X137433858Y-77257526D01*
X137312717Y-77025500D01*
X135953500Y-77025500D01*
X135953500Y-77045500D01*
X135699500Y-77045500D01*
X135699500Y-77025500D01*
X134340283Y-77025500D01*
X134219142Y-77257526D01*
X134221791Y-77273291D01*
X134340142Y-77518983D01*
X134134327Y-77312808D01*
X133790799Y-77170162D01*
X133418833Y-77169838D01*
X133075057Y-77311883D01*
X132811808Y-77574673D01*
X132669162Y-77918201D01*
X132668838Y-78290167D01*
X132810883Y-78633943D01*
X132829731Y-78652824D01*
X132694057Y-78708883D01*
X132430808Y-78971673D01*
X132288162Y-79315201D01*
X132287838Y-79687167D01*
X132429883Y-80030943D01*
X132692673Y-80294192D01*
X133036201Y-80436838D01*
X133408167Y-80437162D01*
X133751943Y-80295117D01*
X133785118Y-80262000D01*
X138938000Y-80262000D01*
X139228839Y-80204148D01*
X139475401Y-80039401D01*
X139780776Y-79734026D01*
X141331142Y-79734026D01*
X141333791Y-79749791D01*
X141587768Y-80277036D01*
X142024180Y-80666954D01*
X142576587Y-80860184D01*
X142811500Y-80715924D01*
X142811500Y-79502000D01*
X141452283Y-79502000D01*
X141331142Y-79734026D01*
X139780776Y-79734026D01*
X141664464Y-77850338D01*
X141694085Y-77894670D01*
X142003569Y-78101461D01*
X141587768Y-78472964D01*
X141333791Y-79000209D01*
X141331142Y-79015974D01*
X141452283Y-79248000D01*
X142811500Y-79248000D01*
X142811500Y-79228000D01*
X143065500Y-79228000D01*
X143065500Y-79248000D01*
X143085500Y-79248000D01*
X143085500Y-79502000D01*
X143065500Y-79502000D01*
X143065500Y-80715924D01*
X143300413Y-80860184D01*
X143852820Y-80666954D01*
X144289232Y-80277036D01*
X144543209Y-79749791D01*
X144545858Y-79734026D01*
X144424718Y-79502002D01*
X144578000Y-79502002D01*
X144578000Y-88062427D01*
X144472029Y-87903830D01*
X143985848Y-87578974D01*
X143412359Y-87464900D01*
X143353641Y-87464900D01*
X142780152Y-87578974D01*
X142314558Y-87890074D01*
X142309762Y-87864583D01*
X142170690Y-87648459D01*
X141958490Y-87503469D01*
X141706600Y-87452460D01*
X139979400Y-87452460D01*
X139761500Y-87493461D01*
X139761500Y-85842963D01*
X139793692Y-85810827D01*
X139936338Y-85467299D01*
X139936662Y-85095333D01*
X139794617Y-84751557D01*
X139531827Y-84488308D01*
X139188299Y-84345662D01*
X138816333Y-84345338D01*
X138472557Y-84487383D01*
X138209308Y-84750173D01*
X138066662Y-85093701D01*
X138066338Y-85465667D01*
X138208383Y-85809443D01*
X138241500Y-85842618D01*
X138241500Y-89484556D01*
X138198327Y-89441308D01*
X137854799Y-89298662D01*
X137807923Y-89298621D01*
X135284401Y-86775099D01*
X135037839Y-86610352D01*
X134747000Y-86552500D01*
X126863963Y-86552500D01*
X126831827Y-86520308D01*
X126488299Y-86377662D01*
X126116333Y-86377338D01*
X125772557Y-86519383D01*
X125509308Y-86782173D01*
X125366662Y-87125701D01*
X125366338Y-87497667D01*
X125508383Y-87841443D01*
X125771173Y-88104692D01*
X126114701Y-88247338D01*
X126255349Y-88247461D01*
X126255338Y-88259667D01*
X126397383Y-88603443D01*
X126660173Y-88866692D01*
X127003701Y-89009338D01*
X127375667Y-89009662D01*
X127719443Y-88867617D01*
X127752618Y-88834500D01*
X132654198Y-88834500D01*
X134954878Y-91135180D01*
X134954838Y-91180667D01*
X135096883Y-91524443D01*
X135359673Y-91787692D01*
X135703201Y-91930338D01*
X136075167Y-91930662D01*
X136418943Y-91788617D01*
X136682192Y-91525827D01*
X136824838Y-91182299D01*
X136825162Y-90810333D01*
X136683117Y-90466557D01*
X136420327Y-90203308D01*
X136076799Y-90060662D01*
X136029923Y-90060621D01*
X134041802Y-88072500D01*
X134432198Y-88072500D01*
X136732878Y-90373180D01*
X136732838Y-90418667D01*
X136874883Y-90762443D01*
X137137673Y-91025692D01*
X137481201Y-91168338D01*
X137853167Y-91168662D01*
X138196943Y-91026617D01*
X138241500Y-90982138D01*
X138241500Y-95125698D01*
X138226820Y-95140378D01*
X138181333Y-95140338D01*
X137837557Y-95282383D01*
X137574308Y-95545173D01*
X137431662Y-95888701D01*
X137431338Y-96260667D01*
X137573383Y-96604443D01*
X137836173Y-96867692D01*
X138179701Y-97010338D01*
X138551667Y-97010662D01*
X138895443Y-96868617D01*
X139158692Y-96605827D01*
X139301338Y-96262299D01*
X139301379Y-96215423D01*
X139538901Y-95977901D01*
X139703648Y-95731339D01*
X139761500Y-95440500D01*
X139761500Y-95108201D01*
X140240152Y-95428026D01*
X140813641Y-95542100D01*
X140872359Y-95542100D01*
X141445848Y-95428026D01*
X141932029Y-95103170D01*
X142113000Y-94832328D01*
X142293971Y-95103170D01*
X142780152Y-95428026D01*
X143353641Y-95542100D01*
X143412359Y-95542100D01*
X143985848Y-95428026D01*
X144472029Y-95103170D01*
X144578000Y-94944573D01*
X144578000Y-101600800D01*
X144284947Y-101333312D01*
X143869026Y-101161042D01*
X143637000Y-101282183D01*
X143637000Y-102489000D01*
X143657000Y-102489000D01*
X143657000Y-102743000D01*
X143637000Y-102743000D01*
X143637000Y-102763000D01*
X143383000Y-102763000D01*
X143383000Y-102743000D01*
X143363000Y-102743000D01*
X143363000Y-102489000D01*
X143383000Y-102489000D01*
X143383000Y-101282183D01*
X143150974Y-101161042D01*
X142735053Y-101333312D01*
X142303179Y-101727510D01*
X142245664Y-101850228D01*
X142029670Y-101526971D01*
X141543489Y-101202115D01*
X140970000Y-101088041D01*
X140396511Y-101202115D01*
X139910330Y-101526971D01*
X139700000Y-101841752D01*
X139489670Y-101526971D01*
X139003489Y-101202115D01*
X138430000Y-101088041D01*
X137856511Y-101202115D01*
X137370330Y-101526971D01*
X137045474Y-102013152D01*
X136931400Y-102586641D01*
X136931400Y-102645359D01*
X137045474Y-103218848D01*
X137356574Y-103684442D01*
X137331083Y-103689238D01*
X137114959Y-103828310D01*
X136969969Y-104040510D01*
X136918960Y-104292400D01*
X136918960Y-106019600D01*
X136921575Y-106033500D01*
X129343721Y-106033500D01*
X129654526Y-105568348D01*
X129768600Y-104994859D01*
X129768600Y-104936141D01*
X129654526Y-104362652D01*
X129343426Y-103897058D01*
X129368917Y-103892262D01*
X129585041Y-103753190D01*
X129730031Y-103540990D01*
X129781040Y-103289100D01*
X129781040Y-101561900D01*
X129736762Y-101326583D01*
X129597690Y-101110459D01*
X129385490Y-100965469D01*
X129133600Y-100914460D01*
X127406400Y-100914460D01*
X127171083Y-100958738D01*
X126954959Y-101097810D01*
X126809969Y-101310010D01*
X126801136Y-101353631D01*
X126789670Y-101336471D01*
X126303489Y-101011615D01*
X125730000Y-100897541D01*
X125220000Y-100998986D01*
X125220000Y-98090110D01*
X125280167Y-98090162D01*
X125623943Y-97948117D01*
X125657118Y-97915000D01*
X125796198Y-97915000D01*
X125874378Y-97993180D01*
X125874338Y-98038667D01*
X126016383Y-98382443D01*
X126279173Y-98645692D01*
X126622701Y-98788338D01*
X126994667Y-98788662D01*
X127338443Y-98646617D01*
X127601692Y-98383827D01*
X127744338Y-98040299D01*
X127744662Y-97668333D01*
X127602617Y-97324557D01*
X127528485Y-97250296D01*
X127665192Y-97113827D01*
X127807838Y-96770299D01*
X127808162Y-96398333D01*
X127666117Y-96054557D01*
X127403327Y-95791308D01*
X127059799Y-95648662D01*
X127012923Y-95648621D01*
X126711901Y-95347599D01*
X126465339Y-95182852D01*
X126174500Y-95125000D01*
X125657463Y-95125000D01*
X125625327Y-95092808D01*
X125281799Y-94950162D01*
X125220000Y-94950108D01*
X125220000Y-90036302D01*
X133674198Y-98490500D01*
X131562963Y-98490500D01*
X131530827Y-98458308D01*
X131187299Y-98315662D01*
X130815333Y-98315338D01*
X130471557Y-98457383D01*
X130208308Y-98720173D01*
X130065662Y-99063701D01*
X130065338Y-99435667D01*
X130207383Y-99779443D01*
X130470173Y-100042692D01*
X130813701Y-100185338D01*
X131185667Y-100185662D01*
X131529443Y-100043617D01*
X131562618Y-100010500D01*
X137670698Y-100010500D01*
X137685378Y-100025180D01*
X137685338Y-100070667D01*
X137827383Y-100414443D01*
X138090173Y-100677692D01*
X138433701Y-100820338D01*
X138805667Y-100820662D01*
X139149443Y-100678617D01*
X139412692Y-100415827D01*
X139555338Y-100072299D01*
X139555662Y-99700333D01*
X139413617Y-99356557D01*
X139150827Y-99093308D01*
X138807299Y-98950662D01*
X138760423Y-98950621D01*
X138522901Y-98713099D01*
X138276339Y-98548352D01*
X137985500Y-98490500D01*
X135618444Y-98490500D01*
X135618662Y-98239833D01*
X135476617Y-97896057D01*
X135213827Y-97632808D01*
X134870299Y-97490162D01*
X134823423Y-97490121D01*
X125251925Y-87918623D01*
X125267838Y-87880299D01*
X125268162Y-87508333D01*
X125126117Y-87164557D01*
X124863327Y-86901308D01*
X124519799Y-86758662D01*
X124147833Y-86758338D01*
X123804057Y-86900383D01*
X123540808Y-87163173D01*
X123398162Y-87506701D01*
X123398095Y-87584015D01*
X123195333Y-87583838D01*
X122851557Y-87725883D01*
X122588308Y-87988673D01*
X122445662Y-88332201D01*
X122445338Y-88704167D01*
X122587383Y-89047943D01*
X122756599Y-89217454D01*
X122715308Y-89258673D01*
X122572662Y-89602201D01*
X122572338Y-89974167D01*
X122714383Y-90317943D01*
X122977173Y-90581192D01*
X123249998Y-90694479D01*
X123249998Y-94940045D01*
X123212327Y-94902308D01*
X122868799Y-94759662D01*
X122496833Y-94759338D01*
X122153057Y-94901383D01*
X121889808Y-95164173D01*
X121820502Y-95331079D01*
X121544333Y-95330838D01*
X121200557Y-95472883D01*
X120937308Y-95735673D01*
X120794662Y-96079201D01*
X120794338Y-96451167D01*
X120936383Y-96794943D01*
X120969500Y-96828118D01*
X120969500Y-98370537D01*
X120937308Y-98402673D01*
X120863712Y-98579910D01*
X118552500Y-96268698D01*
X118552500Y-88410547D01*
X118829443Y-88296117D01*
X119092692Y-88033327D01*
X119235338Y-87689799D01*
X119235662Y-87317833D01*
X119093617Y-86974057D01*
X118830827Y-86710808D01*
X118487299Y-86568162D01*
X118115333Y-86567838D01*
X117771557Y-86709883D01*
X117508308Y-86972673D01*
X117365662Y-87316201D01*
X117365621Y-87363077D01*
X117255099Y-87473599D01*
X117090352Y-87720161D01*
X117032500Y-88011000D01*
X117032500Y-96583500D01*
X117090352Y-96874339D01*
X117255099Y-97120901D01*
X121126526Y-100992328D01*
X120650000Y-100897541D01*
X120076511Y-101011615D01*
X119590330Y-101336471D01*
X119380000Y-101651252D01*
X119169670Y-101336471D01*
X118683489Y-101011615D01*
X118110000Y-100897541D01*
X117536511Y-101011615D01*
X117050330Y-101336471D01*
X116725474Y-101822652D01*
X116611400Y-102396141D01*
X116611400Y-102454859D01*
X116725474Y-103028348D01*
X117050330Y-103514529D01*
X117321161Y-103695492D01*
X116903179Y-104077010D01*
X116655032Y-104606473D01*
X116775531Y-104838500D01*
X117983000Y-104838500D01*
X117983000Y-104818500D01*
X118237000Y-104818500D01*
X118237000Y-104838500D01*
X118257000Y-104838500D01*
X118257000Y-105092500D01*
X118237000Y-105092500D01*
X118237000Y-105112500D01*
X117983000Y-105112500D01*
X117983000Y-105092500D01*
X116775531Y-105092500D01*
X116655032Y-105324527D01*
X116903179Y-105853990D01*
X117099846Y-106033500D01*
X107771000Y-106033500D01*
X107771000Y-77344944D01*
X108185525Y-77344944D01*
X108385115Y-77826818D01*
X108823121Y-78299188D01*
X109408554Y-78567983D01*
X109664500Y-78449367D01*
X109664500Y-77089000D01*
X109918500Y-77089000D01*
X109918500Y-78449367D01*
X110174446Y-78567983D01*
X110759879Y-78299188D01*
X111197885Y-77826818D01*
X111397475Y-77344944D01*
X111278336Y-77089000D01*
X109918500Y-77089000D01*
X109664500Y-77089000D01*
X108304664Y-77089000D01*
X108185525Y-77344944D01*
X107771000Y-77344944D01*
X107771000Y-73406000D01*
X108128060Y-73406000D01*
X108128060Y-75438000D01*
X108172338Y-75673317D01*
X108311410Y-75889441D01*
X108474448Y-76000840D01*
X108385115Y-76097182D01*
X108185525Y-76579056D01*
X108304664Y-76835000D01*
X109664500Y-76835000D01*
X109664500Y-76815000D01*
X109918500Y-76815000D01*
X109918500Y-76835000D01*
X111278336Y-76835000D01*
X111397475Y-76579056D01*
X111197885Y-76097182D01*
X111107403Y-75999602D01*
X111258941Y-75902090D01*
X111403931Y-75689890D01*
X111454940Y-75438000D01*
X111454940Y-73406000D01*
X111410662Y-73170683D01*
X111271590Y-72954559D01*
X111059390Y-72809569D01*
X110807500Y-72758560D01*
X108775500Y-72758560D01*
X108540183Y-72802838D01*
X108324059Y-72941910D01*
X108179069Y-73154110D01*
X108128060Y-73406000D01*
X107771000Y-73406000D01*
X107771000Y-70687000D01*
X134225008Y-70687000D01*
X134214069Y-70703010D01*
X134214069Y-70703010D01*
G37*
X134214069Y-70703010D02*
X134163060Y-70954900D01*
X134163060Y-71454638D01*
X132495099Y-73122599D01*
X132330352Y-73369161D01*
X132272500Y-73660000D01*
X132272500Y-73722000D01*
X132012799Y-73614162D01*
X131640833Y-73613838D01*
X131297057Y-73755883D01*
X131033808Y-74018673D01*
X130891162Y-74362201D01*
X130890838Y-74734167D01*
X131032883Y-75077943D01*
X131066000Y-75111118D01*
X131066000Y-75758198D01*
X126944700Y-79879498D01*
X124846502Y-79879498D01*
X124555663Y-79937350D01*
X124309101Y-80102097D01*
X122478820Y-81932378D01*
X122433333Y-81932338D01*
X122089557Y-82074383D01*
X121826308Y-82337173D01*
X121683662Y-82680701D01*
X121683338Y-83052667D01*
X121825383Y-83396443D01*
X122088173Y-83659692D01*
X122431701Y-83802338D01*
X122635005Y-83802515D01*
X122650883Y-83840943D01*
X122913673Y-84104192D01*
X123257201Y-84246838D01*
X123629167Y-84247162D01*
X123972943Y-84105117D01*
X124236192Y-83842327D01*
X124378838Y-83498799D01*
X124378879Y-83451923D01*
X125981302Y-81849500D01*
X127571500Y-81849500D01*
X127862339Y-81791648D01*
X128108901Y-81626901D01*
X133569901Y-76165901D01*
X133734648Y-75919340D01*
X133792500Y-75628500D01*
X133792500Y-73974802D01*
X134517120Y-73250182D01*
X134558610Y-73278531D01*
X134599939Y-73286900D01*
X134582085Y-73298830D01*
X134257229Y-73785011D01*
X134143155Y-74358500D01*
X134257229Y-74931989D01*
X134582085Y-75418170D01*
X134891569Y-75624961D01*
X134475768Y-75996464D01*
X134221791Y-76523709D01*
X134219142Y-76539474D01*
X134340283Y-76771500D01*
X135699500Y-76771500D01*
X135699500Y-76751500D01*
X135953500Y-76751500D01*
X135953500Y-76771500D01*
X137312717Y-76771500D01*
X137433858Y-76539474D01*
X137431209Y-76523709D01*
X137177232Y-75996464D01*
X136761431Y-75624961D01*
X137070915Y-75418170D01*
X137395771Y-74931989D01*
X137509845Y-74358500D01*
X137395771Y-73785011D01*
X137070915Y-73298830D01*
X137056587Y-73289257D01*
X137077817Y-73285262D01*
X137293941Y-73146190D01*
X137438931Y-72933990D01*
X137489940Y-72682100D01*
X137489940Y-70954900D01*
X137445662Y-70719583D01*
X137424695Y-70687000D01*
X141316452Y-70687000D01*
X141275060Y-70891400D01*
X141275060Y-72618600D01*
X141319338Y-72853917D01*
X141458410Y-73070041D01*
X141670610Y-73215031D01*
X141711939Y-73223400D01*
X141694085Y-73235330D01*
X141369229Y-73721511D01*
X141355327Y-73791402D01*
X141318617Y-73702557D01*
X141055827Y-73439308D01*
X140712299Y-73296662D01*
X140340333Y-73296338D01*
X139996557Y-73438383D01*
X139733308Y-73701173D01*
X139590662Y-74044701D01*
X139590621Y-74091577D01*
X137765599Y-75916599D01*
X137600852Y-76163161D01*
X137543000Y-76454000D01*
X137543000Y-77218698D01*
X137378049Y-77383649D01*
X137431209Y-77273291D01*
X137433858Y-77257526D01*
X137312717Y-77025500D01*
X135953500Y-77025500D01*
X135953500Y-77045500D01*
X135699500Y-77045500D01*
X135699500Y-77025500D01*
X134340283Y-77025500D01*
X134219142Y-77257526D01*
X134221791Y-77273291D01*
X134340142Y-77518983D01*
X134134327Y-77312808D01*
X133790799Y-77170162D01*
X133418833Y-77169838D01*
X133075057Y-77311883D01*
X132811808Y-77574673D01*
X132669162Y-77918201D01*
X132668838Y-78290167D01*
X132810883Y-78633943D01*
X132829731Y-78652824D01*
X132694057Y-78708883D01*
X132430808Y-78971673D01*
X132288162Y-79315201D01*
X132287838Y-79687167D01*
X132429883Y-80030943D01*
X132692673Y-80294192D01*
X133036201Y-80436838D01*
X133408167Y-80437162D01*
X133751943Y-80295117D01*
X133785118Y-80262000D01*
X138938000Y-80262000D01*
X139228839Y-80204148D01*
X139475401Y-80039401D01*
X139780776Y-79734026D01*
X141331142Y-79734026D01*
X141333791Y-79749791D01*
X141587768Y-80277036D01*
X142024180Y-80666954D01*
X142576587Y-80860184D01*
X142811500Y-80715924D01*
X142811500Y-79502000D01*
X141452283Y-79502000D01*
X141331142Y-79734026D01*
X139780776Y-79734026D01*
X141664464Y-77850338D01*
X141694085Y-77894670D01*
X142003569Y-78101461D01*
X141587768Y-78472964D01*
X141333791Y-79000209D01*
X141331142Y-79015974D01*
X141452283Y-79248000D01*
X142811500Y-79248000D01*
X142811500Y-79228000D01*
X143065500Y-79228000D01*
X143065500Y-79248000D01*
X143085500Y-79248000D01*
X143085500Y-79502000D01*
X143065500Y-79502000D01*
X143065500Y-80715924D01*
X143300413Y-80860184D01*
X143852820Y-80666954D01*
X144289232Y-80277036D01*
X144543209Y-79749791D01*
X144545858Y-79734026D01*
X144424718Y-79502002D01*
X144578000Y-79502002D01*
X144578000Y-88062427D01*
X144472029Y-87903830D01*
X143985848Y-87578974D01*
X143412359Y-87464900D01*
X143353641Y-87464900D01*
X142780152Y-87578974D01*
X142314558Y-87890074D01*
X142309762Y-87864583D01*
X142170690Y-87648459D01*
X141958490Y-87503469D01*
X141706600Y-87452460D01*
X139979400Y-87452460D01*
X139761500Y-87493461D01*
X139761500Y-85842963D01*
X139793692Y-85810827D01*
X139936338Y-85467299D01*
X139936662Y-85095333D01*
X139794617Y-84751557D01*
X139531827Y-84488308D01*
X139188299Y-84345662D01*
X138816333Y-84345338D01*
X138472557Y-84487383D01*
X138209308Y-84750173D01*
X138066662Y-85093701D01*
X138066338Y-85465667D01*
X138208383Y-85809443D01*
X138241500Y-85842618D01*
X138241500Y-89484556D01*
X138198327Y-89441308D01*
X137854799Y-89298662D01*
X137807923Y-89298621D01*
X135284401Y-86775099D01*
X135037839Y-86610352D01*
X134747000Y-86552500D01*
X126863963Y-86552500D01*
X126831827Y-86520308D01*
X126488299Y-86377662D01*
X126116333Y-86377338D01*
X125772557Y-86519383D01*
X125509308Y-86782173D01*
X125366662Y-87125701D01*
X125366338Y-87497667D01*
X125508383Y-87841443D01*
X125771173Y-88104692D01*
X126114701Y-88247338D01*
X126255349Y-88247461D01*
X126255338Y-88259667D01*
X126397383Y-88603443D01*
X126660173Y-88866692D01*
X127003701Y-89009338D01*
X127375667Y-89009662D01*
X127719443Y-88867617D01*
X127752618Y-88834500D01*
X132654198Y-88834500D01*
X134954878Y-91135180D01*
X134954838Y-91180667D01*
X135096883Y-91524443D01*
X135359673Y-91787692D01*
X135703201Y-91930338D01*
X136075167Y-91930662D01*
X136418943Y-91788617D01*
X136682192Y-91525827D01*
X136824838Y-91182299D01*
X136825162Y-90810333D01*
X136683117Y-90466557D01*
X136420327Y-90203308D01*
X136076799Y-90060662D01*
X136029923Y-90060621D01*
X134041802Y-88072500D01*
X134432198Y-88072500D01*
X136732878Y-90373180D01*
X136732838Y-90418667D01*
X136874883Y-90762443D01*
X137137673Y-91025692D01*
X137481201Y-91168338D01*
X137853167Y-91168662D01*
X138196943Y-91026617D01*
X138241500Y-90982138D01*
X138241500Y-95125698D01*
X138226820Y-95140378D01*
X138181333Y-95140338D01*
X137837557Y-95282383D01*
X137574308Y-95545173D01*
X137431662Y-95888701D01*
X137431338Y-96260667D01*
X137573383Y-96604443D01*
X137836173Y-96867692D01*
X138179701Y-97010338D01*
X138551667Y-97010662D01*
X138895443Y-96868617D01*
X139158692Y-96605827D01*
X139301338Y-96262299D01*
X139301379Y-96215423D01*
X139538901Y-95977901D01*
X139703648Y-95731339D01*
X139761500Y-95440500D01*
X139761500Y-95108201D01*
X140240152Y-95428026D01*
X140813641Y-95542100D01*
X140872359Y-95542100D01*
X141445848Y-95428026D01*
X141932029Y-95103170D01*
X142113000Y-94832328D01*
X142293971Y-95103170D01*
X142780152Y-95428026D01*
X143353641Y-95542100D01*
X143412359Y-95542100D01*
X143985848Y-95428026D01*
X144472029Y-95103170D01*
X144578000Y-94944573D01*
X144578000Y-101600800D01*
X144284947Y-101333312D01*
X143869026Y-101161042D01*
X143637000Y-101282183D01*
X143637000Y-102489000D01*
X143657000Y-102489000D01*
X143657000Y-102743000D01*
X143637000Y-102743000D01*
X143637000Y-102763000D01*
X143383000Y-102763000D01*
X143383000Y-102743000D01*
X143363000Y-102743000D01*
X143363000Y-102489000D01*
X143383000Y-102489000D01*
X143383000Y-101282183D01*
X143150974Y-101161042D01*
X142735053Y-101333312D01*
X142303179Y-101727510D01*
X142245664Y-101850228D01*
X142029670Y-101526971D01*
X141543489Y-101202115D01*
X140970000Y-101088041D01*
X140396511Y-101202115D01*
X139910330Y-101526971D01*
X139700000Y-101841752D01*
X139489670Y-101526971D01*
X139003489Y-101202115D01*
X138430000Y-101088041D01*
X137856511Y-101202115D01*
X137370330Y-101526971D01*
X137045474Y-102013152D01*
X136931400Y-102586641D01*
X136931400Y-102645359D01*
X137045474Y-103218848D01*
X137356574Y-103684442D01*
X137331083Y-103689238D01*
X137114959Y-103828310D01*
X136969969Y-104040510D01*
X136918960Y-104292400D01*
X136918960Y-106019600D01*
X136921575Y-106033500D01*
X129343721Y-106033500D01*
X129654526Y-105568348D01*
X129768600Y-104994859D01*
X129768600Y-104936141D01*
X129654526Y-104362652D01*
X129343426Y-103897058D01*
X129368917Y-103892262D01*
X129585041Y-103753190D01*
X129730031Y-103540990D01*
X129781040Y-103289100D01*
X129781040Y-101561900D01*
X129736762Y-101326583D01*
X129597690Y-101110459D01*
X129385490Y-100965469D01*
X129133600Y-100914460D01*
X127406400Y-100914460D01*
X127171083Y-100958738D01*
X126954959Y-101097810D01*
X126809969Y-101310010D01*
X126801136Y-101353631D01*
X126789670Y-101336471D01*
X126303489Y-101011615D01*
X125730000Y-100897541D01*
X125220000Y-100998986D01*
X125220000Y-98090110D01*
X125280167Y-98090162D01*
X125623943Y-97948117D01*
X125657118Y-97915000D01*
X125796198Y-97915000D01*
X125874378Y-97993180D01*
X125874338Y-98038667D01*
X126016383Y-98382443D01*
X126279173Y-98645692D01*
X126622701Y-98788338D01*
X126994667Y-98788662D01*
X127338443Y-98646617D01*
X127601692Y-98383827D01*
X127744338Y-98040299D01*
X127744662Y-97668333D01*
X127602617Y-97324557D01*
X127528485Y-97250296D01*
X127665192Y-97113827D01*
X127807838Y-96770299D01*
X127808162Y-96398333D01*
X127666117Y-96054557D01*
X127403327Y-95791308D01*
X127059799Y-95648662D01*
X127012923Y-95648621D01*
X126711901Y-95347599D01*
X126465339Y-95182852D01*
X126174500Y-95125000D01*
X125657463Y-95125000D01*
X125625327Y-95092808D01*
X125281799Y-94950162D01*
X125220000Y-94950108D01*
X125220000Y-90036302D01*
X133674198Y-98490500D01*
X131562963Y-98490500D01*
X131530827Y-98458308D01*
X131187299Y-98315662D01*
X130815333Y-98315338D01*
X130471557Y-98457383D01*
X130208308Y-98720173D01*
X130065662Y-99063701D01*
X130065338Y-99435667D01*
X130207383Y-99779443D01*
X130470173Y-100042692D01*
X130813701Y-100185338D01*
X131185667Y-100185662D01*
X131529443Y-100043617D01*
X131562618Y-100010500D01*
X137670698Y-100010500D01*
X137685378Y-100025180D01*
X137685338Y-100070667D01*
X137827383Y-100414443D01*
X138090173Y-100677692D01*
X138433701Y-100820338D01*
X138805667Y-100820662D01*
X139149443Y-100678617D01*
X139412692Y-100415827D01*
X139555338Y-100072299D01*
X139555662Y-99700333D01*
X139413617Y-99356557D01*
X139150827Y-99093308D01*
X138807299Y-98950662D01*
X138760423Y-98950621D01*
X138522901Y-98713099D01*
X138276339Y-98548352D01*
X137985500Y-98490500D01*
X135618444Y-98490500D01*
X135618662Y-98239833D01*
X135476617Y-97896057D01*
X135213827Y-97632808D01*
X134870299Y-97490162D01*
X134823423Y-97490121D01*
X125251925Y-87918623D01*
X125267838Y-87880299D01*
X125268162Y-87508333D01*
X125126117Y-87164557D01*
X124863327Y-86901308D01*
X124519799Y-86758662D01*
X124147833Y-86758338D01*
X123804057Y-86900383D01*
X123540808Y-87163173D01*
X123398162Y-87506701D01*
X123398095Y-87584015D01*
X123195333Y-87583838D01*
X122851557Y-87725883D01*
X122588308Y-87988673D01*
X122445662Y-88332201D01*
X122445338Y-88704167D01*
X122587383Y-89047943D01*
X122756599Y-89217454D01*
X122715308Y-89258673D01*
X122572662Y-89602201D01*
X122572338Y-89974167D01*
X122714383Y-90317943D01*
X122977173Y-90581192D01*
X123249998Y-90694479D01*
X123249998Y-94940045D01*
X123212327Y-94902308D01*
X122868799Y-94759662D01*
X122496833Y-94759338D01*
X122153057Y-94901383D01*
X121889808Y-95164173D01*
X121820502Y-95331079D01*
X121544333Y-95330838D01*
X121200557Y-95472883D01*
X120937308Y-95735673D01*
X120794662Y-96079201D01*
X120794338Y-96451167D01*
X120936383Y-96794943D01*
X120969500Y-96828118D01*
X120969500Y-98370537D01*
X120937308Y-98402673D01*
X120863712Y-98579910D01*
X118552500Y-96268698D01*
X118552500Y-88410547D01*
X118829443Y-88296117D01*
X119092692Y-88033327D01*
X119235338Y-87689799D01*
X119235662Y-87317833D01*
X119093617Y-86974057D01*
X118830827Y-86710808D01*
X118487299Y-86568162D01*
X118115333Y-86567838D01*
X117771557Y-86709883D01*
X117508308Y-86972673D01*
X117365662Y-87316201D01*
X117365621Y-87363077D01*
X117255099Y-87473599D01*
X117090352Y-87720161D01*
X117032500Y-88011000D01*
X117032500Y-96583500D01*
X117090352Y-96874339D01*
X117255099Y-97120901D01*
X121126526Y-100992328D01*
X120650000Y-100897541D01*
X120076511Y-101011615D01*
X119590330Y-101336471D01*
X119380000Y-101651252D01*
X119169670Y-101336471D01*
X118683489Y-101011615D01*
X118110000Y-100897541D01*
X117536511Y-101011615D01*
X117050330Y-101336471D01*
X116725474Y-101822652D01*
X116611400Y-102396141D01*
X116611400Y-102454859D01*
X116725474Y-103028348D01*
X117050330Y-103514529D01*
X117321161Y-103695492D01*
X116903179Y-104077010D01*
X116655032Y-104606473D01*
X116775531Y-104838500D01*
X117983000Y-104838500D01*
X117983000Y-104818500D01*
X118237000Y-104818500D01*
X118237000Y-104838500D01*
X118257000Y-104838500D01*
X118257000Y-105092500D01*
X118237000Y-105092500D01*
X118237000Y-105112500D01*
X117983000Y-105112500D01*
X117983000Y-105092500D01*
X116775531Y-105092500D01*
X116655032Y-105324527D01*
X116903179Y-105853990D01*
X117099846Y-106033500D01*
X107771000Y-106033500D01*
X107771000Y-77344944D01*
X108185525Y-77344944D01*
X108385115Y-77826818D01*
X108823121Y-78299188D01*
X109408554Y-78567983D01*
X109664500Y-78449367D01*
X109664500Y-77089000D01*
X109918500Y-77089000D01*
X109918500Y-78449367D01*
X110174446Y-78567983D01*
X110759879Y-78299188D01*
X111197885Y-77826818D01*
X111397475Y-77344944D01*
X111278336Y-77089000D01*
X109918500Y-77089000D01*
X109664500Y-77089000D01*
X108304664Y-77089000D01*
X108185525Y-77344944D01*
X107771000Y-77344944D01*
X107771000Y-73406000D01*
X108128060Y-73406000D01*
X108128060Y-75438000D01*
X108172338Y-75673317D01*
X108311410Y-75889441D01*
X108474448Y-76000840D01*
X108385115Y-76097182D01*
X108185525Y-76579056D01*
X108304664Y-76835000D01*
X109664500Y-76835000D01*
X109664500Y-76815000D01*
X109918500Y-76815000D01*
X109918500Y-76835000D01*
X111278336Y-76835000D01*
X111397475Y-76579056D01*
X111197885Y-76097182D01*
X111107403Y-75999602D01*
X111258941Y-75902090D01*
X111403931Y-75689890D01*
X111454940Y-75438000D01*
X111454940Y-73406000D01*
X111410662Y-73170683D01*
X111271590Y-72954559D01*
X111059390Y-72809569D01*
X110807500Y-72758560D01*
X108775500Y-72758560D01*
X108540183Y-72802838D01*
X108324059Y-72941910D01*
X108179069Y-73154110D01*
X108128060Y-73406000D01*
X107771000Y-73406000D01*
X107771000Y-70687000D01*
X134225008Y-70687000D01*
X134214069Y-70703010D01*
M02*
